<svg width="60" height="52" fill="none" xmlns="http://www.w3.org/2000/svg"><path d="M57.008 5.606L46.792 1.35a4.615 4.615 0 00-3.526 0L38.36 3.393a.86.86 0 10.661 1.588l4.905-2.043a2.885 2.885 0 012.204 0l10.215 4.255c.994.415 1.636 1.347 1.636 2.374v36.775c0 1.43-1.228 2.593-2.738 2.593H53.85a.86.86 0 100 1.72h1.394c2.458 0 4.458-1.935 4.458-4.313V9.567c0-1.724-1.058-3.279-2.694-3.961zm-6.906 43.329H35.653a3.675 3.675 0 00.921-2.442c0-.906-.328-1.736-.87-2.38.341-.175.658-.403.938-.683a3.675 3.675 0 001.083-2.616c0-.942-.354-1.802-.936-2.456a3.7 3.7 0 00.796-.606 3.674 3.674 0 001.084-2.615c0-.94-.353-1.797-.931-2.45.293-.165.566-.37.81-.614a3.679 3.679 0 001.082-2.615c0-2.04-1.659-3.7-3.698-3.7h-3.856V9.568c0-1.028.642-1.96 1.635-2.375l1.564-.65a.86.86 0 10-.66-1.589l-1.565.652c-1.637.682-2.694 2.237-2.694 3.961v16.191h-3.593c1.197-3.78 1.095-7.726-.301-12.306a3.321 3.321 0 00-1.22-1.717 3.356 3.356 0 00-1.999-.654c-.933 0-1.8.372-2.443 1.049a3.337 3.337 0 00-.92 2.493c.268 5.17-2.117 6.95-5.418 9.414-1.086.81-2.274 1.698-3.442 2.785v-1.127a.86.86 0 00-.86-.86h-8.3a.86.86 0 00-.86.86v24.388c0 .475.385.86.86.86h8.3a.86.86 0 00.86-.86V47.92c1.634.155 2.827.48 3.986 1.368a4.37 4.37 0 002.64.905h15.165c.62.302 1.307.462 2.003.462h15.288a.86.86 0 100-1.72zm-34.05-1.012c-1.622-1.242-3.355-1.587-5.031-1.732v-10.04a.86.86 0 10-1.72 0v13.072H2.72V26.555H9.3v5.849a.86.86 0 101.72 0v-3.139c1.439-1.587 2.98-2.737 4.471-3.85 3.303-2.464 6.423-4.793 6.106-10.88a1.632 1.632 0 01.45-1.22 1.633 1.633 0 011.197-.514 1.646 1.646 0 011.573 1.154c1.422 4.664 1.4 8.589-.07 12.35a.86.86 0 00.801 1.174h10.384a1.982 1.982 0 011.4 3.378 1.97 1.97 0 01-1.4.58H32.4a.86.86 0 100 1.72h2.57a1.982 1.982 0 011.4 3.38 1.97 1.97 0 01-1.4.58H32.4a.86.86 0 100 1.719h1.626a1.981 1.981 0 011.4 3.378c-.375.375-.872.58-1.4.58h-2.57a.86.86 0 100 1.72h1.42a1.981 1.981 0 011.4 3.38c-.35.348-.901.57-1.314.578l-15.316.002a2.645 2.645 0 01-1.594-.55z" fill="#FB500A" stroke="#FB500A" stroke-width=".3"/><path d="M48.133 9.95a3.28 3.28 0 00-3.277-3.278 3.28 3.28 0 00-3.277 3.277 3.28 3.28 0 003.277 3.277 3.28 3.28 0 003.276-3.277zm-4.835 0c0-.86.699-1.558 1.558-1.558a1.56 1.56 0 011.557 1.557 1.56 1.56 0 01-1.557 1.558 1.559 1.559 0 01-1.558-1.558z" fill="#FB500A" stroke="#FB500A" stroke-width=".3"/><path d="M43.458 34.923v.855h3.3v1.05h-3.3v1.56h-1.95v-1.56h-1.5v-1.05h1.5v-7.89h4.32c1.4 0 2.49.3 3.27.9.79.6 1.185 1.475 1.185 2.625 0 1.14-.395 2.01-1.185 2.61-.78.6-1.87.9-3.27.9h-2.37zm4.86-3.495c0-.61-.215-1.075-.645-1.395-.43-.33-1.05-.495-1.86-.495h-2.355v3.81h2.355c.8 0 1.415-.165 1.845-.495.44-.34.66-.815.66-1.425z" fill="#FB500A"/></svg>