<svg width="42" height="50" fill="none" xmlns="http://www.w3.org/2000/svg"><path d="M34.767 14.844H20.704a.977.977 0 000 1.953h14.063a.977.977 0 000-1.953zm-3.417 4.973a.984.984 0 00-.691-.286.984.984 0 00-.69.287.984.984 0 00-.287.69c0 .257.105.509.286.69a.984.984 0 00.69.287.984.984 0 00.691-.287.984.984 0 00.286-.69.984.984 0 00-.286-.69zM21.393 4.485a.984.984 0 00-.69-.286.984.984 0 00-.69.286.984.984 0 00-.287.69c0 .258.105.51.286.691a.984.984 0 00.69.286.984.984 0 00.691-.286.984.984 0 00.286-.69.984.984 0 00-.286-.69zm5.158 15.046h-5.847a.977.977 0 000 1.954h5.847a.977.977 0 100-1.954zm8.216 5.859H20.704a.977.977 0 000 1.954h14.063a.977.977 0 000-1.953zm-3.417 4.975a.984.984 0 00-.691-.287.984.984 0 00-.69.287.984.984 0 00-.287.69c0 .257.105.509.286.69a.984.984 0 00.69.287.984.984 0 00.691-.286.984.984 0 00.286-.69.984.984 0 00-.286-.691zm-4.799-.287h-5.847a.977.977 0 000 1.954h5.847a.977.977 0 000-1.953zm8.216 5.86H20.704a.977.977 0 000 1.953h14.063a.977.977 0 000-1.953zm-3.417 4.974a.984.984 0 00-.691-.286.984.984 0 00-.69.286.984.984 0 00-.287.69c0 .257.105.509.286.69a.984.984 0 00.69.287.984.984 0 00.691-.287.984.984 0 00.286-.69.984.984 0 00-.286-.69zm-4.799-.286h-5.847a.977.977 0 000 1.953h5.847a.977.977 0 100-1.953z" fill="#FB500A"/><path d="M36.645 3.809h-7.459a5.983 5.983 0 00-4.139-1.66h-.855a3.919 3.919 0 00-3.489-2.15 3.92 3.92 0 00-3.488 2.15h-.857a5.983 5.983 0 00-4.14 1.66H4.763A4.767 4.767 0 000 8.57v36.67A4.767 4.767 0 004.762 50h31.883a4.767 4.767 0 004.762-4.76V8.57a4.767 4.767 0 00-4.762-4.761zM16.358 4.1h1.522c.44 0 .824-.293.941-.716a1.958 1.958 0 011.882-1.432c.876 0 1.65.589 1.883 1.432a.976.976 0 00.941.716h1.52a4.059 4.059 0 014.039 3.711H12.319a4.058 4.058 0 014.039-3.71zm23.096 41.14a2.812 2.812 0 01-2.809 2.809H4.762a2.812 2.812 0 01-2.809-2.809V8.57a2.812 2.812 0 012.809-2.808h6.088a5.97 5.97 0 00-.498 2.392v.635c0 .54.437.977.976.977h18.749a.977.977 0 00.976-.977v-.635a5.97 5.97 0 00-.498-2.392h6.09a2.812 2.812 0 012.809 2.808v36.67z" fill="#FB500A"/><path d="M14.493 14.609a.977.977 0 00-1.38 0l-4.177 4.176-1.286-1.287a.977.977 0 00-1.382 1.382l1.978 1.977a.974.974 0 001.38 0l4.867-4.867a.977.977 0 000-1.381zM12.11 35.938H7.422a.977.977 0 00-.977.976v4.688c0 .54.438.977.977.977h4.688a.977.977 0 00.976-.977v-4.688a.977.977 0 00-.976-.976zm-.977 4.687H8.398v-2.734h2.735v2.734zm.977-15.235H7.422a.977.977 0 00-.977.977v4.688c0 .54.438.977.977.977h4.688a.977.977 0 00.976-.977v-4.688a.977.977 0 00-.976-.976zm-.977 4.688H8.398v-2.734h2.735v2.734z" fill="#FB500A"/></svg>