<svg width="47" height="57" fill="none" xmlns="http://www.w3.org/2000/svg"><path d="M44.101 19.572a1.059 1.059 0 00-1.371.545l-6.693 15.506c-.51 1.182 1.408 2.003 1.932.788l6.693-15.505a1.009 1.009 0 00-.56-1.334zm-6.955-.079c-1.597 0-2.897 1.394-2.897 3.108 0 1.714 1.3 3.108 2.897 3.108 1.598 0 2.898-1.394 2.898-3.108 0-1.714-1.3-3.108-2.898-3.108zm0 4.179c-.434 0-.801-.49-.801-1.07 0-.581.367-1.072.801-1.072.435 0 .802.49.802 1.071 0 .58-.367 1.071-.802 1.071zm3.509 10.255c0 1.714 1.3 3.108 2.897 3.108 1.598 0 2.897-1.394 2.897-3.108 0-1.714-1.3-3.108-2.897-3.108-1.597 0-2.897 1.394-2.897 3.108zm3.699 0c0 .58-.367 1.071-.802 1.071-.434 0-.802-.49-.802-1.07 0-.581.367-1.072.802-1.072.435 0 .802.49.802 1.071zM4.681 37.546c.579 0 1.048-.456 1.048-1.019V20.001c0-.563-.47-1.02-1.048-1.02H1.048c-.579 0-1.048.457-1.048 1.02 0 .562.47 1.018 1.048 1.018h2.585v15.508c0 .563.47 1.019 1.048 1.019zm3.286-13.103v7.643c0 3.197 2.675 5.797 5.964 5.797 3.288 0 5.963-2.6 5.963-5.797v-7.643c0-3.197-2.675-5.798-5.963-5.798-3.289 0-5.964 2.6-5.964 5.798zm2.096 0c0-2.074 1.735-3.76 3.868-3.76 2.132 0 3.867 1.686 3.867 3.76v7.643c0 2.073-1.735 3.76-3.867 3.76-2.133 0-3.868-1.687-3.868-3.76v-7.643zm11.003 0v7.643c0 3.197 2.675 5.797 5.963 5.797 3.288 0 5.964-2.6 5.964-5.797v-7.643c0-3.197-2.676-5.798-5.964-5.798-3.288 0-5.963 2.6-5.963 5.798zm9.83 0v7.643c0 2.073-1.734 3.76-3.867 3.76s-3.868-1.687-3.868-3.76v-7.643c0-2.074 1.735-3.76 3.868-3.76s3.868 1.686 3.868 3.76zM11.477 11.608c-.742 1.055.932 2.285 1.73 1.15.526-.748 1.11-1.43 1.737-2.041a5.36 5.36 0 001.967 2.16c1.145.705 2.266-1.017 1.121-1.721-.68-.42-1.148-1.076-1.423-1.825 2.468-1.74 5.331-2.482 7.919-1.91 1.32.293 1.785-1.695.464-1.987-2.978-.658-6.092.093-8.66 1.62.063-.653.267-1.245.562-1.826 1.614-3.005 5.66-3.763 8.643-2.76 3.532 1.192 5.832 4.184 6.963 7.555-2.877-.86-6.06.507-8.53 1.567-1.6.73-.574 2.285.847 1.864 2.924-1.256 6.239-2.68 8.59-.627.726.633 1.903-.005 1.732-.939-.468-2.529-1.441-4.877-2.814-6.792C30.733 2.876 28.62 1.3 26.212.54c-2.03-.68-4.261-.72-6.284-.109-2.177.658-3.916 2.03-4.897 3.865a7.036 7.036 0 00-.752 4.228 16.5 16.5 0 00-2.802 3.084zm7.168 43.685c4.193 2.101 10.27 1.422 12.665-2.922.797-1.443 1.1-2.962.905-4.405a16.527 16.527 0 002.757-3.045c.765-1.087-.964-2.237-1.73-1.15a14.512 14.512 0 01-1.735 2.039c-.803-1.465-2.179-2.559-3.94-3.113-2.855-.898-5.348.096-7.547.973-2.584 1.031-4.625 1.845-7.026-.008-.749-.578-1.866.085-1.68.996.725 3.54 2.585 8.258 7.33 10.635zm2.17-9.738c2.048-.817 3.982-1.588 6.107-.92 1.394.44 2.436 1.341 2.932 2.54l.004.01c-2.473 1.747-5.343 2.495-7.936 1.922-1.32-.292-1.785 1.695-.464 1.987 2.981.659 6.101-.096 8.671-1.627a5.648 5.648 0 01-.666 1.941c-1.813 3.287-6.561 3.726-9.858 2.074-3.095-1.55-4.752-4.361-5.637-6.99 2.478.806 4.77-.108 6.848-.937z" fill="#FB500A"/></svg>