<svg width="56" height="56" fill="none" xmlns="http://www.w3.org/2000/svg"><g clip-path="url(#clip0)" fill="#FB500A"><path d="M.129 37.983c.19.352.558.572.96.572h5.446v15.812c0 .598.488 1.083 1.09 1.083H48.14c.602 0 1.09-.485 1.09-1.083V38.555h5.445c.402 0 .77-.22.96-.572.19-.352.169-.78-.054-1.112l-6.535-9.747a1.09 1.09 0 00-.906-.482h-4.139c-.601 0-1.09.485-1.09 1.083s.489 1.083 1.09 1.083h3.556l5.083 7.581H35l-5.083-7.58H34.2c.601 0 1.089-.486 1.089-1.084 0-.598-.488-1.083-1.09-1.083H7.625a1.09 1.09 0 00-.906.482L.183 36.871c-.223.333-.244.76-.054 1.112zm8.584.572h12.635c.364 0 .704-.18.906-.482l4.54-6.771v21.982H8.713V38.555zm24.798-.482c.202.301.542.482.906.482h12.635v14.73h-18.08V31.301l4.54 6.77zM8.207 28.808h17.64l-5.082 7.581H3.125l5.082-7.58zM21.348 2.71C20.458 1.41 18.922 0 16.446 0c-3.49 0-5.99 2.797-5.99 6.17 0 3.745 3.048 6.204 7.662 9.927.809.653 1.644 1.327 2.533 2.063a1.09 1.09 0 001.394 0 245.51 245.51 0 012.532-2.063c4.614-3.723 7.662-6.182 7.662-9.927 0-3.376-2.502-6.17-5.99-6.17-2.476 0-4.012 1.41-4.901 2.71zm8.713 3.46c0 2.713-2.727 4.914-6.856 8.245-.6.485-1.215.98-1.857 1.507a325.57 325.57 0 00-1.857-1.507c-4.129-3.331-6.857-5.532-6.857-8.245 0-2.283 1.64-4.004 3.812-4.004 2.844 0 3.816 3.148 3.855 3.278.134.464.561.783 1.047.783.485 0 .912-.32 1.046-.783.01-.033.983-3.278 3.855-3.278 2.173 0 3.812 1.721 3.812 4.004zm10.891 15.49c.256 0 .512-.09.718-.268.591-.515 1.149-.987 1.688-1.444 3.03-2.567 5.218-4.422 5.218-7.181 0-2.605-1.913-4.644-4.356-4.644-1.555 0-2.597.786-3.268 1.628-.67-.842-1.712-1.628-3.267-1.628-2.443 0-4.357 2.04-4.357 4.644 0 2.759 2.189 4.614 5.218 7.18.54.458 1.097.93 1.689 1.445.205.179.461.268.717.268zm-5.446-8.893c0-1.202.764-2.478 2.179-2.478 1.605 0 2.191 1.957 2.218 2.05a1.09 1.09 0 002.098.001c.024-.083.61-2.051 2.219-2.051 1.415 0 2.178 1.276 2.178 2.478 0 1.759-1.676 3.18-4.453 5.532l-.993.844c-.34-.291-.67-.57-.993-.844-2.776-2.353-4.453-3.773-4.453-5.532z"/><path d="M39.1 28.808c.602 0 1.09-.485 1.09-1.083s-.488-1.083-1.09-1.083c-.6 0-1.088.485-1.088 1.083s.487 1.083 1.089 1.083z"/></g><defs><clipPath id="clip0"><path fill="#fff" d="M0 0h55.765v55.45H0z"/></clipPath></defs></svg>