<svg width="55" height="51" fill="none" xmlns="http://www.w3.org/2000/svg"><path d="M54.965 39.746l-.21-1.132a1.527 1.527 0 00-1.78-1.224l-4.27.785 1.933-1.293a1.525 1.525 0 00.481-2.017l-.585-1.036a1.534 1.534 0 00-1.53-.763 20.42 20.42 0 00.326-3.639c0-.548-.33-1.02-.8-1.23a6.178 6.178 0 00.048-4.674.972.972 0 00-.546-.549 6.129 6.129 0 00-2.576-.43 4.259 4.259 0 00-5.118-3.953 6.639 6.639 0 00-.375-3.546.996.996 0 00-.557-.561 6.602 6.602 0 00-2.454-.472 6.579 6.579 0 00-3.531 1.02 7.97 7.97 0 00-1.897-3.034 1.359 1.359 0 00-.968-.402c-.366 0-.71.143-.968.402l-3.901 3.91a4.05 4.05 0 00-3.405-.968 4.09 4.09 0 00-2.207 1.16 4.093 4.093 0 00-3.004-.215v-3.012a3.804 3.804 0 00-3.73-3.802V7.363a1.344 1.344 0 001.114-1.322V2.17c0-.74-.603-1.343-1.343-1.343H6.56c-.74 0-1.343.602-1.343 1.343v3.87c0 .662.482 1.212 1.114 1.322V9.07a3.803 3.803 0 00-3.73 3.802v23.514c-1.609 1.452-2.61 3.48-2.61 5.72 0 4.41 3.87 7.997 8.626 7.997l32.247-.01a3.69 3.69 0 002.84-1.326c.685-.82.977-1.886.809-2.938l6.44 1.158a1.54 1.54 0 001.161-.26c.335-.24.562-.61.623-1.017l.174-1.17a1.526 1.526 0 00-1.17-1.712l-2.27-.521 4.267-.784c.403-.074.752-.3.983-.636.232-.336.318-.741.244-1.142zm-9.21-15.598c.484 0 .961.077 1.42.228a4.563 4.563 0 01-.385 3.705h-2.17l.692-.694a.806.806 0 10-1.14-1.138l-.367.367a3.737 3.737 0 00-.866-1.488 4.51 4.51 0 012.816-.98zM41.21 20.11a2.646 2.646 0 012.639 2.647l-.002.08a6.121 6.121 0 00-2.3 1.365 3.686 3.686 0 00-.325-.108 3.738 3.738 0 00-2.227-2.77 2.635 2.635 0 012.215-1.214zm-4.259-4.487a4.99 4.99 0 011.603.263 5.048 5.048 0 01-.199 3.72c-.436.398-.79.885-1.032 1.432a3.762 3.762 0 00-2.142.83 4.266 4.266 0 00-.61-.846l1.848-1.852a.805.805 0 10-1.141-1.138l-2.02 2.024a4.211 4.211 0 00-1.235-.367A5.034 5.034 0 0133.4 17.1a4.985 4.985 0 013.552-1.476zM30.78 28.08h-.699a.805.805 0 00-1.498 0h-.822a.805.805 0 00-1.257-.99l-.759.761a.803.803 0 00-.16.229h-1.639a6.371 6.371 0 01-1.033-3.252h12.781a6.371 6.371 0 01-1.033 3.252h-1.706a.801.801 0 00-.16-.23l-.759-.76a.806.806 0 00-1.256.99zm-1.874-4.863a2.644 2.644 0 012.547-1.956c1.217 0 2.243.83 2.547 1.956h-5.094zm1.648-9.906a6.373 6.373 0 011.521 2.845c-.411.447-.753.94-1.022 1.466a.8.8 0 00-.42-.119h-1.074a.806.806 0 100 1.612h.942a6.676 6.676 0 00-.124.674c-.32.084-.625.204-.911.356a4.067 4.067 0 00-2.48-1.894l-.001-.007a4.08 4.08 0 00-.324-1.032l3.893-3.901zm-14.564 7.27a2.46 2.46 0 013.786-2.788.806.806 0 001.154-.201 2.44 2.44 0 012.055-1.103 2.444 2.444 0 012.448 2.448c0 .417.32.765.735.801.9.08 1.667.646 2.023 1.445a4.247 4.247 0 00-.931 2.034h-4.595a1.37 1.37 0 00-1.266.852 6.102 6.102 0 00-3.45-1.06 6.14 6.14 0 00-2.278.438.973.973 0 00-.546.547 6.172 6.172 0 00-.376 1.432 2.438 2.438 0 01-.572-1.196 2.457 2.457 0 011.392-2.647.806.806 0 00.42-1.003zm2.401 7.279l.22.22h-1.935a4.565 4.565 0 01-.148-3.231 4.51 4.51 0 011.42-.228 4.513 4.513 0 013.537 1.694c.136.619.346 1.209.616 1.765h-1.214l-1.355-1.359a.806.806 0 10-1.14 1.139zm-3.43.22h-2.873a2.65 2.65 0 011.25-1.838c.385.517.889.935 1.469 1.218.04.209.09.416.153.62zM6.828 2.438h6.014v3.334H6.83V2.438zm4.9 4.946V9.07H7.943V7.384h3.788zM4.213 16.14h5.232a.806.806 0 100-1.612H4.212v-1.655a2.19 2.19 0 012.185-2.192h6.878a2.19 2.19 0 012.185 2.192v1.655h-1.505a.806.806 0 100 1.612h1.505v.715a4.061 4.061 0 00-1.166 3.597l.002.009a4.071 4.071 0 00-1.65 4.319 4.275 4.275 0 00-1.073.844h-7.36V16.14zm0 11.095h6.425a4.23 4.23 0 00-.175.846h-.136c-.741 0-1.345.604-1.345 1.346 0 1.28.12 2.535.35 3.764a8.877 8.877 0 00-.71-.029c-.975 0-1.903.155-2.614.435-1.088.43-1.389 1.04-1.454 1.462a8.954 8.954 0 00-.341.18v-8.004zm10.202 9.897c.29.232.467.43.57.572h-.03c-.456 0-1.275-.184-2.207-.7a5.815 5.815 0 01-.924-.627.806.806 0 00-1.042 0 5.77 5.77 0 01-.924.627c-.931.516-1.75.7-2.207.7h-.03c.103-.142.28-.34.57-.572a.806.806 0 00-.41-1.43c-.785-.091-1.283-.291-1.515-.437.291-.182 1.029-.492 2.356-.492 1.098 0 1.902.231 2.287.448a.806.806 0 00.789 0c.385-.216 1.188-.447 2.287-.447 1.327 0 2.065.31 2.356.49-.233.147-.73.347-1.516.439a.806.806 0 00-.41 1.43zm-1.612 9.806l.028.15c.096.517.298.992.58 1.405H8.617c-3.868 0-7.015-2.864-7.015-6.385 0-2.406 1.47-4.505 3.636-5.593.248.185.558.346.926.475a1.906 1.906 0 00-.271.796c-.032.371.082.724.32.993.315.356.799.537 1.437.537.852 0 1.968-.337 2.988-.902a7.88 7.88 0 00.664-.41c.208.143.43.28.665.41 1.02.565 2.136.901 2.987.902.639 0 1.122-.18 1.437-.537.239-.269.353-.621.32-.993a1.907 1.907 0 00-.27-.796c.367-.13.677-.29.926-.475 1.717.863 2.997 2.361 3.453 4.145l-5.698 2.165a3.684 3.684 0 00-2.32 4.113zm29.665.797a2.085 2.085 0 01-1.604.748h-.845l-.529-2.852a.806.806 0 10-1.584.294l.474 2.56h-2.772l-.357-1.929a.806.806 0 00-1.585.294l.303 1.636-6.448.002-.485-2.62a.806.806 0 10-1.585.294l.431 2.327-9.414.004h-.001a2.083 2.083 0 01-2.052-1.7l-.028-.149a2.073 2.073 0 011.308-2.313l3.166-1.203.236 1.273a.806.806 0 001.584-.294l-.29-1.56 4.701-1.786a.806.806 0 00-.572-1.507l-2.187.831c-.614-2.172-2.19-3.987-4.28-5.026-.066-.422-.367-1.032-1.454-1.462-.711-.28-1.64-.435-2.614-.435-.67 0-1.31.074-1.876.209v-.487a.806.806 0 00-1.303-.633 18.814 18.814 0 01-.21-2.559h26.241a.806.806 0 100-1.611h-.33a7.976 7.976 0 00.803-3.494 1.37 1.37 0 00-1.236-1.362 2.124 2.124 0 011.469-.582 2.129 2.129 0 012.133 2.133c0 .417.32.765.735.802.963.084 1.75.808 1.915 1.76.044.254.039.504-.005.743h-.865a.806.806 0 100 1.611h6.262a18.567 18.567 0 01-.565 4.322l-4.366 2.578a3.7 3.7 0 00-4.87-2.427l-8.993 3.416a.806.806 0 10.572 1.507l1.185-.45.368 1.986a.806.806 0 001.584-.294l-.42-2.274 6.276-2.384a2.091 2.091 0 012.796 1.562l1.63 8.8a2.06 2.06 0 01-.447 1.7zm2.875-6.307a.806.806 0 00-.035 1.578l5.998 1.376-.15 1.005-6.953-1.25-1.087-5.868 6.057-3.576.504.894-5.108 3.415a.806.806 0 00.593 1.462l8.025-1.474.179.964-8.023 1.474z" fill="#FB500A"/></svg>