<svg width="61" height="61" fill="none" xmlns="http://www.w3.org/2000/svg"><path d="M56.965 19.053h-9.666a3.033 3.033 0 00-3.025 3.034v11.15h-3.616c.201-.733.276-1.596.227-2.601-.079-4.246-.848-7.825-2.286-10.637-1.116-2.183-2.42-3.492-3.538-4.274 1.313-1.353 2.072-3.277 2.072-5.495 0-3.993-3.178-7.24-7.084-7.24-3.905 0-7.083 3.247-7.083 7.24 0 .462.374.836.835.836h.567a5.807 5.807 0 004.578 6.656c-.278 1.035-.416 2.255-.416 3.64l-2.082 1.795-5.067.411-5.845-1.936c-.536-.179-1.143-.38-1.67 0-.519.376-.519 1.033-.519 1.249v4.355c0 .462.374.837.835.837h.994l-1.525 5.28a.834.834 0 101.604.465l1.66-5.745h2.373c-2.952 9.023-1.267 15.045 1.322 21.14h-1.501l-6.251-7.004 1.322-4.577a.835.835 0 10-1.604-.465l-1.265 4.377c-3.91-.065-7.408 2.637-8.3 6.525a.836.836 0 00.627 1.002l1.185.274C4.52 52.497 6.59 55.47 9.75 56.199a6.333 6.333 0 004.823-.814 6.357 6.357 0 002.596-3.193l.936.216c.278.064.542.097.806-.046a.961.961 0 00.47-.642c.06-.273.104-.552.135-.833H36.98c.559 3.48 3.513 6.103 7.04 6.103 3.529 0 6.483-2.623 7.041-6.103h.638l.155.002c.239 0 .584-.027.867-.316.142-.144.308-.403.295-.813a9.503 9.503 0 00-.342-2.267c.665-4.046.025-6.51-.923-8.44.6-.394.997-1.072.997-1.844v-2.3h4.218a3.033 3.033 0 003.025-3.033v-9.79a3.032 3.032 0 00-3.025-3.033zM13.686 53.967a4.675 4.675 0 01-3.561.602c-2.26-.522-3.767-2.598-3.658-4.844l9.057 2.09a4.7 4.7 0 01-1.838 2.152zm4.178-3.332L4.876 47.64c1.002-2.75 3.7-4.572 6.648-4.415l6.363 7.13a6.816 6.816 0 01-.023.28zm12.612-14.582c-.242.641-.242 1.43-.242 2.524v3.158h-3.058v-4.332c0-4.898 2.668-5.77 3.865-5.915h8.185c-.032 1.112-.283 1.902-.758 2.403-.554.585-1.501.87-2.897.87l-2.997.004c-1.069 0-1.774.433-2.098 1.288zm-.242 7.355v1.998H24.28c.066-.62.259-1.099.575-1.43.47-.494 1.133-.568 1.486-.568h3.893zm8.956-13.593h-7.594a31.295 31.295 0 01-.8-3.097l2.309-1.502c1.26-.82 1.915-1.979 1.798-3.18-.104-1.064-.825-2.015-1.84-2.422-.925-.371-1.92-.254-2.801.31.072-.8.207-1.515.403-2.122.356-.036.71-.106 1.056-.208a6.907 6.907 0 001.95-.774c1.608.962 5.144 4.085 5.519 12.995zM24.697 9.393c.394-2.674 2.644-4.73 5.352-4.73 2.985 0 5.414 2.497 5.414 5.567 0 2.496-1.195 4.508-3.12 5.393V11.22c0-.762-.292-1.697-1.678-1.824a.818.818 0 00-.076-.003h-5.892zm1.261 2.638c0-.33.038-.653.112-.965h4.478c.052.006.09.012.116.018a.987.987 0 01.008.136v4.896c-.199.03-.399.044-.599.044h-.006c-2.266-.002-4.109-1.854-4.109-4.13zm-1.082 12.933l1.977-.16a.835.835 0 00.478-.2l3.569-3.076v-.001c.346-.298.714-.45 1.073-.45.16 0 .317.03.47.09.441.178.755.583.798 1.032.056.565-.316 1.138-1.046 1.613L28.218 26.4h-3.342v-1.435zm-3.529.286l1.859-.15v1.3h-2.16c-.28 0-.348-.234-.356-.43-.005-.11.006-.666.657-.72zm-1.976-.578a2.452 2.452 0 00-.308 1.72v.007h-4.046v-3.176l4.357 1.443-.003.006zm1.68 3.4h7.414c.162 0 .32-.046.455-.134l.378-.246c.182.805.389 1.59.614 2.33-1.703.503-4.406 2.13-4.406 7.38v4.417a3.482 3.482 0 00-1.858 1c-.611.64-.96 1.51-1.044 2.587H20.92c-1.698-4.902-2.343-10.119.13-17.333zm1.376 21.139a67.717 67.717 0 01-.886-2.131h8.67c1.123 0 1.693-.513 1.693-1.524v-6.142h6.59a.836.836 0 000-1.674H31.91c.01-.475.04-.864.128-1.093.042-.112.078-.209.537-.209l2.998-.003c1.877-.001 3.22-.457 4.106-1.391.041-.044.08-.09.119-.134h11.28v2.3c0 .287-.242.53-.529.53h-8.312a.836.836 0 000 1.674h7.822c.66 1.227 1.253 2.755 1.218 5.168a9.023 9.023 0 00-7.361-3.778 8.981 8.981 0 00-6.44 2.698 9.227 9.227 0 00-2.625 5.712l-12.424-.003zm21.593 6.105c-2.61 0-4.812-1.884-5.344-4.428h10.688c-.533 2.543-2.734 4.428-5.344 4.428zm6.293-6.102H36.527c.41-3.784 3.568-6.736 7.389-6.736 3.355 0 6.172 2.217 7.105 5.32l.01.03c.131.445.225.908.275 1.386h-.993zm8.007-17.338c0 .75-.608 1.36-1.355 1.36H45.943v-4.321H58.32v2.961zm0-4.635H45.943v-1.78H58.32v1.78zm0-3.453H45.943v-1.701c0-.75.608-1.36 1.356-1.36h9.666c.747 0 1.355.61 1.355 1.36v1.701z" fill="#FB500A"/></svg>