<svg width="105" height="31" fill="none" xmlns="http://www.w3.org/2000/svg"><path d="M103.538 26.61c0 1.602-1.326 2.9-2.965 2.9H3.547c-1.639 0-2.969-1.298-2.969-2.9V3.471C.578 1.87 1.908.567 3.547.567h97.025c1.64 0 2.965 1.303 2.965 2.905l.001 23.137z" fill="#000"/><path d="M100.26.603c1.786 0 3.238 1.416 3.238 3.157v22.558c0 1.741-1.452 3.158-3.238 3.158H3.856c-1.785 0-3.238-1.417-3.238-3.158V3.76C.618 2.02 2.07.603 3.856.603h96.404zm0-.603H3.856C1.736 0 0 1.693 0 3.76v22.558c0 2.067 1.736 3.76 3.856 3.76h96.404c2.12 0 3.856-1.693 3.856-3.76V3.76c0-2.067-1.736-3.76-3.856-3.76z" fill="#A6A6A6"/><path d="M23.235 14.877c-.022-2.424 2.036-3.603 2.13-3.658-1.166-1.657-2.972-1.883-3.606-1.9-1.518-.157-2.989.884-3.762.884-.788 0-1.978-.87-3.26-.844-1.651.025-3.195.956-4.042 2.403-1.747 2.95-.444 7.285 1.23 9.67.838 1.167 1.816 2.47 3.098 2.425 1.253-.05 1.72-.779 3.233-.779 1.499 0 1.938.78 3.245.75 1.345-.021 2.192-1.173 3-2.352.968-1.338 1.357-2.656 1.372-2.724-.032-.01-2.612-.97-2.638-3.875zM20.767 7.75c.675-.822 1.136-1.94 1.008-3.075-.976.042-2.196.658-2.899 1.462-.621.708-1.177 1.869-1.033 2.96 1.096.08 2.221-.538 2.924-1.347zm20.605 15.94h-1.751l-.96-2.94h-3.334l-.914 2.94h-1.705l3.303-10.008h2.041l3.32 10.007zm-3-4.174l-.867-2.612c-.092-.267-.264-.896-.518-1.886h-.03a70.839 70.839 0 01-.488 1.886l-.852 2.613h2.755zm11.498.476c0 1.228-.341 2.198-1.021 2.91-.61.634-1.366.95-2.27.95-.974 0-1.674-.341-2.1-1.024h-.032v3.801h-1.644v-7.78a48.2 48.2 0 00-.06-2.376h1.445l.092 1.144h.03c.55-.862 1.381-1.292 2.498-1.292.873 0 1.602.336 2.185 1.01.585.673.876 1.559.876 2.657zm-1.676.06c0-.703-.162-1.282-.487-1.738-.356-.475-.833-.713-1.432-.713a1.74 1.74 0 00-1.103.393 1.82 1.82 0 00-.647 1.033 2.05 2.05 0 00-.077.489v1.203c0 .525.165.968.495 1.33.33.361.76.541 1.287.541.619 0 1.101-.233 1.446-.697.345-.466.518-1.08.518-1.842zm10.187-.06c0 1.228-.34 2.198-1.021 2.91-.608.634-1.365.95-2.268.95-.975 0-1.675-.341-2.101-1.024h-.03v3.801h-1.645v-7.78a48.2 48.2 0 00-.061-2.376H52.7l.092 1.144h.03c.548-.862 1.38-1.292 2.498-1.292.872 0 1.6.336 2.186 1.01.582.673.874 1.559.874 2.657zm-1.675.06c0-.703-.163-1.282-.488-1.738a1.697 1.697 0 00-1.43-.713c-.407 0-.775.133-1.105.393-.33.264-.545.607-.647 1.033-.05.198-.076.36-.076.489v1.203c0 .525.165.968.494 1.33.33.36.759.541 1.288.541.619 0 1.1-.233 1.446-.697.345-.466.518-1.08.518-1.842zm11.192.831c0 .851-.303 1.544-.911 2.078-.67.585-1.6.876-2.796.876-1.105 0-1.99-.207-2.66-.623l.38-1.336a4.607 4.607 0 002.378.639c.619 0 1.101-.137 1.447-.41.345-.271.517-.637.517-1.092 0-.407-.142-.749-.427-1.026-.282-.278-.755-.536-1.415-.774-1.797-.653-2.695-1.61-2.695-2.87 0-.822.315-1.496.945-2.021.627-.526 1.465-.788 2.512-.788.934 0 1.71.158 2.33.475l-.412 1.307c-.578-.307-1.232-.46-1.964-.46-.578 0-1.03.139-1.354.415a1.175 1.175 0 00-.411.907c0 .395.156.722.47.98.275.237.772.494 1.494.772.883.346 1.532.752 1.949 1.216.416.463.623 1.043.623 1.735zm5.437-3.207h-1.813v3.504c0 .89.32 1.336.96 1.336.294 0 .537-.025.73-.075l.046 1.218c-.324.118-.75.177-1.28.177-.648 0-1.156-.193-1.522-.579-.365-.386-.549-1.034-.549-1.945v-3.637h-1.08v-1.203h1.08V15.15l1.615-.475v1.797h1.813v1.204zm8.177 2.346c0 1.11-.326 2.02-.975 2.732-.68.733-1.585 1.098-2.712 1.098-1.085 0-1.95-.35-2.595-1.053-.644-.702-.967-1.589-.967-2.657 0-1.119.332-2.034.997-2.747.664-.712 1.56-1.069 2.687-1.069 1.086 0 1.96.351 2.62 1.054.63.682.945 1.563.945 2.642zm-1.706.052c0-.666-.146-1.236-.441-1.712-.345-.576-.838-.863-1.476-.863-.661 0-1.163.288-1.508.863-.295.476-.441 1.056-.441 1.742 0 .666.146 1.236.441 1.711.356.576.852.864 1.493.864.628 0 1.12-.294 1.476-.879.303-.485.456-1.061.456-1.726zm7.05-2.191a2.93 2.93 0 00-.518-.044c-.578 0-1.025.213-1.34.639-.274.376-.411.851-.411 1.425v3.786h-1.644l.016-4.943c0-.832-.021-1.59-.062-2.272h1.432l.06 1.38h.046c.173-.474.447-.856.822-1.142a2.022 2.022 0 011.188-.387c.152 0 .29.01.412.03v1.528zm7.354 1.857c0 .287-.019.53-.06.727h-4.933c.02.713.258 1.258.716 1.634.416.336.953.505 1.613.505a5.6 5.6 0 001.996-.341l.258 1.112c-.7.298-1.527.446-2.481.446-1.148 0-2.048-.33-2.704-.987-.654-.658-.982-1.542-.982-2.65 0-1.088.305-1.994.915-2.717.639-.771 1.502-1.157 2.587-1.157 1.067 0 1.875.386 2.423 1.157.434.613.652 1.371.652 2.271zm-1.568-.416c.011-.475-.096-.886-.319-1.232-.284-.446-.722-.669-1.31-.669-.538 0-.975.218-1.309.654a2.358 2.358 0 00-.487 1.247h3.425zM37.829 7.526c0 .885-.273 1.552-.816 2-.504.412-1.22.619-2.147.619-.46 0-.853-.02-1.182-.059V5.25a9.03 9.03 0 011.392-.102c.883 0 1.549.187 1.998.562.503.423.755 1.028.755 1.816zm-.852.022c0-.574-.156-1.013-.468-1.32-.312-.306-.767-.46-1.366-.46-.254 0-.471.017-.65.051v3.677c.099.015.28.022.545.022.619 0 1.096-.168 1.433-.504.336-.335.506-.824.506-1.466zm5.37.752c0 .545-.16.991-.479 1.342-.335.36-.778.54-1.332.54-.534 0-.959-.173-1.276-.518-.316-.346-.474-.78-.474-1.306 0-.549.163-1 .49-1.349.327-.35.766-.525 1.32-.525.534 0 .963.173 1.287.518.309.335.464.768.464 1.298zm-.838.025c0-.327-.073-.607-.217-.841-.17-.283-.411-.424-.725-.424a.814.814 0 00-.741.424c-.145.234-.217.519-.217.855 0 .328.072.608.217.842.175.283.419.424.733.424.309 0 .55-.144.725-.432.15-.238.225-.52.225-.848zm6.897-1.768L47.27 10.1h-.74l-.472-1.539c-.12-.384-.217-.766-.292-1.145h-.015c-.07.39-.167.77-.292 1.145l-.5 1.54h-.75l-1.07-3.545h.831l.411 1.685c.1.398.182.778.247 1.137h.015c.06-.296.16-.673.3-1.13l.516-1.692h.658l.495 1.656c.12.404.217.793.291 1.167h.023c.054-.364.137-.753.246-1.167l.442-1.656h.793zm4.19 3.544h-.808v-2.03c0-.626-.244-.939-.732-.939a.737.737 0 00-.584.258.901.901 0 00-.225.608V10.1h-.808V7.57c0-.312-.01-.65-.03-1.015h.711l.038.554h.022c.094-.172.235-.314.419-.428.219-.132.464-.2.733-.2.339 0 .621.108.846.322.279.262.418.654.418 1.175V10.1zm2.229-.001h-.808V4.93h.808v5.17zm4.758-1.8c0 .545-.16.991-.48 1.342-.334.36-.778.54-1.331.54-.535 0-.96-.173-1.276-.518-.316-.346-.474-.78-.474-1.306 0-.549.163-1 .49-1.349.327-.35.766-.525 1.32-.525.534 0 .962.173 1.287.518.309.335.464.768.464 1.298zm-.84.025c0-.327-.072-.607-.216-.841-.169-.283-.411-.424-.724-.424a.813.813 0 00-.741.424c-.145.234-.217.519-.217.855 0 .328.072.608.217.842.175.283.418.424.733.424.308 0 .55-.144.724-.432.15-.238.225-.52.225-.848zm4.752 1.776h-.725l-.06-.408h-.023c-.248.325-.602.489-1.062.489-.343 0-.62-.108-.83-.321a.993.993 0 01-.284-.722c0-.433.185-.763.557-.992.372-.229.895-.34 1.568-.335v-.067c0-.467-.251-.7-.755-.7a1.72 1.72 0 00-.948.263l-.164-.518c.338-.203.755-.306 1.247-.306.95 0 1.427.49 1.427 1.467v1.305c0 .354.018.636.052.845zm-.839-1.218v-.547c-.891-.015-1.337.224-1.337.715 0 .185.05.323.155.416a.574.574 0 00.395.138.83.83 0 00.494-.164.67.67 0 00.293-.558zm5.432 1.217h-.717l-.038-.568h-.023c-.229.433-.619.65-1.167.65a1.38 1.38 0 01-1.092-.504c-.29-.335-.434-.77-.434-1.305 0-.574.157-1.039.471-1.393a1.466 1.466 0 011.123-.497c.488 0 .83.16 1.024.481h.015V4.93h.81v4.216c0 .345.008.663.028.955zm-.838-1.494v-.591a.893.893 0 00-.315-.726.807.807 0 00-.54-.193.836.836 0 00-.711.35c-.172.234-.26.533-.26.898 0 .35.083.634.249.853.175.233.411.35.706.35a.787.787 0 00.639-.292.956.956 0 00.232-.649zM75 8.3c0 .545-.16.991-.479 1.342-.334.36-.777.54-1.332.54-.532 0-.957-.173-1.275-.518-.316-.346-.475-.78-.475-1.306 0-.549.163-1 .49-1.349.327-.35.767-.525 1.321-.525.533 0 .963.173 1.287.518.308.335.463.768.463 1.298zm-.837.025c0-.327-.073-.607-.217-.841-.17-.283-.411-.424-.726-.424a.816.816 0 00-.74.424c-.146.234-.218.519-.218.855 0 .328.073.608.217.842.175.283.419.424.734.424.308 0 .55-.144.725-.432.15-.238.225-.52.225-.848zm5.183 1.776h-.807v-2.03c0-.626-.244-.939-.734-.939a.735.735 0 00-.583.258.898.898 0 00-.224.608V10.1h-.81V7.57c0-.312-.009-.65-.028-1.015h.71l.037.554h.023c.095-.172.235-.314.419-.428.22-.132.464-.2.733-.2.339 0 .62.108.845.322.28.262.42.654.42 1.175V10.1zm5.439-2.955h-.89v1.722c0 .438.159.657.472.657.145 0 .265-.012.36-.037l.02.598a1.86 1.86 0 01-.627.088c-.32 0-.568-.095-.747-.284-.18-.19-.27-.509-.27-.956V7.146h-.532v-.59h.532v-.65l.792-.233v.882h.89v.591zm4.28 2.954h-.81V8.087c0-.636-.243-.954-.731-.954-.375 0-.631.184-.772.553a.967.967 0 00-.037.283V10.1h-.808V4.93h.808v2.136h.015c.255-.389.62-.583 1.092-.583.335 0 .612.107.832.321.273.267.41.664.41 1.19V10.1zm4.414-1.94c0 .142-.011.26-.03.358h-2.424c.01.35.126.617.35.802.206.166.47.248.794.248.359 0 .686-.055.98-.167l.127.547c-.345.146-.75.219-1.22.219-.563 0-1.007-.162-1.327-.485-.323-.323-.482-.757-.482-1.302 0-.534.148-.98.448-1.334.314-.38.737-.569 1.271-.569.523 0 .92.19 1.189.569.217.3.324.673.324 1.115zm-.771-.203a1.04 1.04 0 00-.157-.605c-.14-.22-.354-.329-.643-.329a.774.774 0 00-.643.321c-.135.17-.214.375-.24.613h1.683z" fill="#fff"/></svg>