<svg width="22" height="29" fill="none" xmlns="http://www.w3.org/2000/svg"><path d="M18.104 8.342h-1.007V6.876c0-3.403-2.745-6.171-6.118-6.171S4.862 3.474 4.862 6.876v1.466H3.855c-1.638 0-2.97 1.344-2.97 2.996v13.961c0 1.652 1.332 2.996 2.97 2.996h14.249c1.637 0 2.97-1.344 2.97-2.996V11.338c0-1.652-1.333-2.996-2.97-2.996zM6.799 6.876c0-2.325 1.875-4.217 4.18-4.217 2.305 0 4.18 1.892 4.18 4.217v1.466H6.8V6.876zM19.136 25.3c0 .575-.463 1.042-1.032 1.042H3.854A1.039 1.039 0 012.822 25.3V11.338c0-.574.463-1.041 1.033-1.041h1.007v1.37a1.489 1.489 0 00-.513 1.121c0 .825.663 1.495 1.481 1.495.818 0 1.48-.67 1.48-1.495 0-.449-.2-.847-.511-1.121v-1.37h8.36v1.37a1.489 1.489 0 00-.511 1.121c0 .825.662 1.495 1.48 1.495s1.48-.67 1.48-1.495c0-.449-.2-.848-.511-1.121v-1.37h1.007c.569 0 1.032.467 1.032 1.04V25.3z" fill="#000"/><path d="M11.365 14v8.748M8 19.832l3.365 2.916 3.364-2.916" stroke="#000" stroke-width="2" stroke-linecap="round"/></svg>