<svg width="22" height="30" fill="none" xmlns="http://www.w3.org/2000/svg"><path d="M18.764 8.304h-1.097V6.711C17.667 3.01 14.677 0 11 0 7.324 0 4.333 3.01 4.333 6.71v1.594H3.236C1.452 8.304 0 9.766 0 11.562v15.18C0 28.54 1.452 30 3.236 30h15.528C20.548 30 22 28.539 22 26.743V11.562c0-1.796-1.452-3.258-3.236-3.258zM6.444 6.711c0-2.529 2.044-4.586 4.556-4.586s4.556 2.057 4.556 4.586v1.593H6.444V6.711zM19.89 26.743a1.13 1.13 0 01-1.125 1.132H3.236a1.13 1.13 0 01-1.125-1.132V11.562a1.13 1.13 0 011.125-1.132h1.097v1.49a1.62 1.62 0 001.056 2.844 1.62 1.62 0 001.055-2.844v-1.49h9.111v1.49a1.62 1.62 0 001.056 2.844 1.62 1.62 0 001.056-2.844v-1.49h1.097c.62 0 1.125.507 1.125 1.132v15.18z" fill="#FB500A"/></svg>