<svg width="105" height="31" fill="none" xmlns="http://www.w3.org/2000/svg"><path d="M100.25 30.078H3.978c-2.117 0-3.85-1.693-3.85-3.76V3.76C.127 1.693 1.86 0 3.977 0h96.272c2.117 0 3.851 1.693 3.851 3.76v22.558c0 2.067-1.734 3.76-3.851 3.76z" fill="#000"/><path d="M100.25.603c1.783 0 3.234 1.416 3.234 3.157v22.558c0 1.741-1.451 3.158-3.234 3.158H3.978c-1.783 0-3.233-1.417-3.233-3.158V3.76c0-1.74 1.45-3.157 3.233-3.157h96.272zm0-.603H3.978C1.861 0 .128 1.693.128 3.76v22.558c0 2.067 1.733 3.76 3.85 3.76h96.272c2.117 0 3.851-1.693 3.851-3.76V3.76c0-2.067-1.734-3.76-3.851-3.76z" fill="#A6A6A6"/><path d="M36.647 7.703c0 .628-.192 1.13-.572 1.506-.436.444-1.004.668-1.7.668a2.365 2.365 0 01-1.699-.676c-.467-.455-.7-1.013-.7-1.682 0-.668.233-1.226.7-1.677a2.353 2.353 0 011.7-.68c.33 0 .646.067.947.19.3.126.545.295.722.504l-.402.396c-.309-.356-.73-.532-1.268-.532-.485 0-.906.166-1.263.5-.353.334-.53.767-.53 1.3 0 .531.177.969.53 1.303.357.33.778.5 1.263.5.515 0 .948-.17 1.29-.504.226-.22.354-.525.387-.914h-1.677v-.543h2.237c.027.117.035.23.035.34zm3.55-1.883h-2.102v1.428h1.895v.543h-1.895V9.22h2.102v.554H37.5V5.266h2.697v.553zm2.505 3.954h-.595V5.819h-1.29v-.553h3.175v.553h-1.29v3.955zm3.588 0V5.266h.593v4.508h-.594zm3.225 0h-.59V5.819h-1.294v-.553h3.178v.553h-1.294v3.955zm7.304-.58c-.456.455-1.02.683-1.693.683-.676 0-1.24-.228-1.696-.683-.454-.455-.68-1.014-.68-1.675 0-.66.226-1.219.68-1.674.456-.455 1.02-.683 1.697-.683.668 0 1.233.228 1.688.687a2.27 2.27 0 01.685 1.67c0 .661-.227 1.22-.681 1.675zm-2.949-.378c.343.337.76.506 1.257.506.492 0 .913-.169 1.252-.506.342-.338.515-.771.515-1.297 0-.525-.173-.958-.515-1.296a1.711 1.711 0 00-1.252-.506c-.497 0-.914.169-1.257.506-.342.338-.515.771-.515 1.296 0 .526.173.96.515 1.297zm4.464.958V5.266h.722l2.245 3.506h.026l-.026-.867v-2.64h.594v4.509h-.62l-2.35-3.68h-.027l.026.871v2.809h-.59z" fill="#fff" stroke="#fff" stroke-width=".16" stroke-miterlimit="10"/><path d="M52.603 16.357c-1.809 0-3.287 1.344-3.287 3.199 0 1.84 1.478 3.197 3.287 3.197 1.813 0 3.29-1.358 3.29-3.197 0-1.855-1.477-3.199-3.29-3.199zm0 5.137c-.992 0-1.846-.8-1.846-1.938 0-1.154.854-1.94 1.846-1.94.993 0 1.85.787 1.85 1.94 0 1.138-.857 1.938-1.85 1.938zm-7.171-5.137c-1.813 0-3.287 1.344-3.287 3.199 0 1.84 1.474 3.197 3.287 3.197 1.812 0 3.287-1.358 3.287-3.197 0-1.855-1.475-3.199-3.287-3.199zm0 5.137c-.994 0-1.85-.8-1.85-1.938 0-1.154.856-1.94 1.85-1.94.992 0 1.846.787 1.846 1.94 0 1.138-.854 1.938-1.846 1.938zm-8.534-4.156v1.359h3.325c-.098.76-.358 1.318-.756 1.707-.485.47-1.241.991-2.569.991-2.045 0-3.647-1.612-3.647-3.61 0-1.996 1.602-3.608 3.647-3.608 1.106 0 1.911.422 2.505.969l.981-.958c-.83-.775-1.936-1.37-3.486-1.37-2.805 0-5.163 2.229-5.163 4.968s2.358 4.967 5.163 4.967c1.517 0 2.656-.485 3.55-1.394.918-.896 1.204-2.156 1.204-3.173a4.44 4.44 0 00-.075-.848h-4.679zm34.895 1.053c-.27-.715-1.105-2.034-2.805-2.034-1.685 0-3.088 1.296-3.088 3.199 0 1.791 1.388 3.197 3.25 3.197a3.266 3.266 0 002.73-1.417l-1.117-.726c-.373.532-.88.884-1.614.884-.728 0-1.251-.326-1.586-.97l4.381-1.769-.151-.364zm-4.467 1.065a1.774 1.774 0 011.71-1.865c.573 0 1.058.28 1.22.679l-2.93 1.186zm-3.561 3.103h1.44v-9.4h-1.44v9.4zm-2.359-5.49h-.048c-.323-.373-.94-.712-1.722-.712-1.64 0-3.14 1.406-3.14 3.21 0 1.792 1.5 3.186 3.14 3.186.781 0 1.399-.34 1.722-.726h.048v.459c0 1.223-.669 1.88-1.748 1.88-.88 0-1.426-.62-1.651-1.142l-1.253.51a3.124 3.124 0 002.904 1.891c1.688 0 3.113-.97 3.113-3.33v-5.743h-1.365v.518zm-1.647 4.425c-.993 0-1.823-.811-1.823-1.928 0-1.127.83-1.95 1.823-1.95.978 0 1.75.823 1.75 1.95 0 1.117-.772 1.928-1.75 1.928zm18.777-8.335H75.09v9.4h1.437v-3.562h2.008c1.595 0 3.16-1.127 3.16-2.919 0-1.791-1.569-2.918-3.16-2.918zm.037 4.531h-2.045v-3.223h2.045a1.65 1.65 0 011.685 1.611 1.66 1.66 0 01-1.685 1.612zm8.88-1.35c-1.038 0-2.118.447-2.561 1.438l1.274.522c.275-.522.78-.69 1.312-.69.746 0 1.501.436 1.513 1.208v.099a3.216 3.216 0 00-1.501-.364c-1.373 0-2.772.738-2.772 2.115 0 1.26 1.125 2.07 2.389 2.07.966 0 1.5-.425 1.835-.92h.049v.726h1.387v-3.606c0-1.666-1.275-2.599-2.925-2.599zm-.174 5.15c-.47 0-1.124-.227-1.124-.796 0-.727.816-1.007 1.523-1.007.632 0 .929.137 1.313.316-.113.87-.88 1.487-1.712 1.487zm8.153-4.945l-1.65 4.075h-.05l-1.707-4.075h-1.549l2.565 5.694-1.463 3.169h1.5l3.953-8.863h-1.599zM82.485 22.56h1.44v-9.4h-1.44v9.4z" fill="#fff"/><path fill-rule="evenodd" clip-rule="evenodd" d="M21.018 18.215l3.768-2.09c1.075-.598 1.075-1.575 0-2.169l-3.768-2.093-.017-.01-.054-.03L9.766 5.62c-.629-.344-1.185-.322-1.546-.005l-.022.02-.032.031-.002.003c-.226.23-.357.59-.357 1.057v16.63c0 .466.13.826.357 1.057l.001.001c.358.366.94.41 1.601.043l11.251-6.242zm-3.253-3.177v.001z" fill="#fff"/></svg>