<svg width="19" height="19" fill="none" xmlns="http://www.w3.org/2000/svg"><path fill-rule="evenodd" clip-rule="evenodd" d="M19 9.5a9.5 9.5 0 11-19 0 9.5 9.5 0 0119 0zm-8.552 1.346l-.994.994a7.22 7.22 0 01-1.47-1.123 7.219 7.219 0 01-1.123-1.47l.994-.994a1.5 1.5 0 00.196-1.879l-.674-1.036a1.161 1.161 0 00-1.794-.188c-.533.533-.824 1.314-.615 2.102.28 1.05.918 2.781 2.309 4.172 1.39 1.391 3.122 2.03 4.172 2.309.789.21 1.57-.082 2.102-.615a1.161 1.161 0 00-.188-1.794l-1.036-.674a1.5 1.5 0 00-1.879.196z" fill="#000"/></svg>