<svg width="21" height="15" fill="none" xmlns="http://www.w3.org/2000/svg"><path d="M20.79 3.187s-.204-1.448-.836-2.084c-.8-.836-1.694-.84-2.104-.89C14.913 0 10.504 0 10.504 0h-.008S6.086 0 3.15.213c-.41.05-1.304.054-2.104.89C.414 1.74.213 3.187.213 3.187S0 4.889 0 6.587V8.18c0 1.698.21 3.4.21 3.4s.204 1.448.832 2.083c.8.837 1.85.808 2.317.898 1.682.16 7.141.21 7.141.21s4.413-.008 7.35-.218c.41-.049 1.304-.053 2.104-.89.632-.635.837-2.083.837-2.083S21 9.88 21 8.179V6.587c0-1.698-.21-3.4-.21-3.4zM8.33 10.11V4.208l5.673 2.962-5.673 2.94z" fill="#000"/></svg>