<svg width="238" height="92" fill="none" xmlns="http://www.w3.org/2000/svg"><path d="M75.67 83.724c-99.689-23.582-51.975-53.902-28.118-65.846C71.41 6.546 95.097-2.03 172.804.42c97.133 3.063 59.966 51.499 49.23 62.587-10.767 11.12-46.675 44.3-146.364 20.717zM5.713 16.56C-3.674 12.46.82 7.187 3.065 5.11 5.312 3.137 7.543 1.646 14.86 2.072c9.148.533 5.648 8.956 4.637 10.885-1.014 1.934-4.396 7.704-13.784 3.603z" fill="#FFE66F"/><path d="M76.71 29.13v2.4h-.93V30h-5.89l-.01 1.53h-.92l.01-2.4h.86v-3.14c0-.987.27-1.743.81-2.27.54-.533 1.27-.8 2.19-.8.926 0 1.66.267 2.2.8.546.527.82 1.283.82 2.27v3.14h.86zm-1.87 0v-3.24c0-.68-.178-1.193-.53-1.54-.347-.353-.84-.53-1.48-.53-.634 0-1.127.177-1.48.53-.354.347-.53.86-.53 1.54v3.24h4.02zm5.41.09c.633 0 1.144-.213 1.53-.64l.52.62c-.233.28-.53.493-.89.64a3.07 3.07 0 01-1.19.22c-.56 0-1.056-.113-1.49-.34a2.528 2.528 0 01-1.01-.97 2.798 2.798 0 01-.35-1.4c0-.513.114-.977.34-1.39a2.49 2.49 0 01.95-.96c.407-.233.864-.35 1.37-.35.48 0 .917.11 1.31.33.394.213.707.517.94.91.233.393.353.847.36 1.36l-4.21.82c.133.367.357.65.67.85.32.2.704.3 1.15.3zm-.22-3.76c-.333 0-.633.077-.9.23-.26.153-.463.37-.61.65a2 2 0 00-.22.96v.1l3.39-.64c-.087-.387-.28-.7-.58-.94-.3-.24-.66-.36-1.08-.36zm8.435-.76V30h-.96v-4.46h-2.28l-.06 1.18c-.033.713-.096 1.31-.19 1.79-.093.473-.246.853-.46 1.14-.213.287-.51.43-.89.43-.173 0-.37-.03-.59-.09l.06-.81c.087.02.167.03.24.03a.65.65 0 00.6-.35c.134-.233.22-.51.26-.83.04-.32.077-.777.11-1.37l.09-1.96h4.07zm6.837 0V30h-.92v-.84a2.078 2.078 0 01-.81.67 2.51 2.51 0 01-1.08.23c-.514 0-.974-.113-1.38-.34a2.48 2.48 0 01-.96-.95c-.227-.413-.34-.887-.34-1.42 0-.533.113-1.003.34-1.41a2.48 2.48 0 01.96-.95c.406-.227.866-.34 1.38-.34.38 0 .73.073 1.05.22.32.14.586.35.8.63v-.8h.96zm-2.73 4.52c.333 0 .636-.077.91-.23a1.7 1.7 0 00.64-.66c.153-.287.23-.613.23-.98s-.077-.69-.23-.97a1.607 1.607 0 00-.64-.66 1.828 1.828 0 00-.91-.23c-.34 0-.647.077-.92.23-.267.153-.48.373-.64.66-.154.28-.23.603-.23.97s.076.693.23.98c.16.28.373.5.64.66.273.153.58.23.92.23zm6.936 0c.633 0 1.143-.213 1.53-.64l.52.62a2.23 2.23 0 01-.89.64 3.07 3.07 0 01-1.19.22c-.56 0-1.057-.113-1.49-.34a2.528 2.528 0 01-1.01-.97 2.798 2.798 0 01-.35-1.4c0-.513.113-.977.34-1.39.233-.413.55-.733.95-.96.407-.233.863-.35 1.37-.35.48 0 .917.11 1.31.33.393.213.707.517.94.91.233.393.353.847.36 1.36l-4.21.82c.133.367.357.65.67.85.32.2.703.3 1.15.3zm-.22-3.76c-.333 0-.633.077-.9.23-.26.153-.463.37-.61.65a2 2 0 00-.22.96v.1l3.39-.64c-.087-.387-.28-.7-.58-.94-.3-.24-.66-.36-1.08-.36zm10.083-.76V30h-.87v-3.87l-1.98 3.27h-.42l-1.96-3.28V30h-.88v-5.3h.99l2.08 3.58 2.14-3.58h.9zm9.594 0v4.58c0 .927-.23 1.61-.69 2.05-.46.447-1.147.67-2.06.67-.5 0-.977-.07-1.43-.21-.453-.133-.82-.327-1.1-.58l.46-.74c.247.213.55.38.91.5.367.127.743.19 1.13.19.62 0 1.077-.147 1.37-.44.3-.293.45-.74.45-1.34v-.42a2.17 2.17 0 01-.84.62c-.327.133-.683.2-1.07.2-.507 0-.967-.107-1.38-.32a2.468 2.468 0 01-.96-.91 2.579 2.579 0 01-.35-1.34c0-.5.117-.943.35-1.33.233-.393.553-.697.96-.91.413-.213.873-.32 1.38-.32.4 0 .77.073 1.11.22.347.147.63.363.85.65v-.82h.91zm-2.76 4.24c.347 0 .657-.073.93-.22.28-.147.497-.35.65-.61.16-.267.24-.567.24-.9 0-.513-.17-.927-.51-1.24-.34-.32-.777-.48-1.31-.48-.54 0-.98.16-1.32.48-.34.313-.51.727-.51 1.24 0 .333.077.633.23.9.16.26.377.463.65.61.28.147.597.22.95.22zm7.004.28c.634 0 1.144-.213 1.53-.64l.52.62a2.23 2.23 0 01-.89.64 3.07 3.07 0 01-1.19.22c-.56 0-1.056-.113-1.49-.34a2.53 2.53 0 01-1.01-.97 2.801 2.801 0 01-.35-1.4c0-.513.114-.977.34-1.39a2.49 2.49 0 01.95-.96c.407-.233.864-.35 1.37-.35.48 0 .917.11 1.31.33.394.213.707.517.94.91.234.393.354.847.36 1.36l-4.21.82c.134.367.357.65.67.85.32.2.704.3 1.15.3zm-.22-3.76c-.333 0-.633.077-.9.23-.26.153-.463.37-.61.65-.146.273-.22.593-.22.96v.1l3.39-.64c-.086-.387-.28-.7-.58-.94-.3-.24-.66-.36-1.08-.36zm10.603-.81c.667 0 1.194.193 1.58.58.394.387.59.96.59 1.72V30h-.96v-2.94c0-.513-.12-.9-.36-1.16-.233-.26-.57-.39-1.01-.39-.486 0-.873.153-1.16.46-.286.3-.43.733-.43 1.3V30h-.96v-2.94c0-.513-.12-.9-.36-1.16-.233-.26-.57-.39-1.01-.39-.486 0-.873.153-1.16.46-.286.3-.43.733-.43 1.3V30h-.96v-5.3h.92v.79a1.83 1.83 0 01.76-.62c.314-.147.67-.22 1.07-.22.414 0 .78.083 1.1.25.32.167.567.41.74.73.2-.307.477-.547.83-.72a2.76 2.76 0 011.21-.26zm6.148 5.41c-.527 0-1-.117-1.42-.35a2.585 2.585 0 01-.99-.96 2.801 2.801 0 01-.35-1.4c0-.52.117-.983.35-1.39.24-.413.57-.733.99-.96.42-.233.893-.35 1.42-.35.527 0 .997.117 1.41.35.42.227.747.547.98.96.24.407.36.87.36 1.39 0 .52-.12.987-.36 1.4a2.51 2.51 0 01-.98.96 2.82 2.82 0 01-1.41.35zm0-.84c.34 0 .643-.077.91-.23.273-.16.487-.38.64-.66a2.05 2.05 0 00.23-.98c0-.367-.077-.69-.23-.97a1.607 1.607 0 00-.64-.66 1.794 1.794 0 00-.91-.23c-.34 0-.647.077-.92.23-.267.153-.48.373-.64.66a1.99 1.99 0 00-.23.97c0 .367.077.693.23.98.16.28.373.5.64.66.273.153.58.23.92.23zm6.196-1.46h-1.1V30h-.96v-5.3h.96v2.24h1.12l1.72-2.24h1.03l-2.01 2.55 2.15 2.75h-1.13l-1.78-2.24zm6.051 2.3c-.54 0-1.023-.117-1.45-.35a2.585 2.585 0 01-.99-.96c-.24-.413-.36-.88-.36-1.4 0-.52.12-.983.36-1.39.24-.413.57-.733.99-.96.427-.233.91-.35 1.45-.35.48 0 .907.097 1.28.29.38.193.673.473.88.84l-.73.47a1.631 1.631 0 00-.62-.57 1.769 1.769 0 00-.82-.19c-.347 0-.66.077-.94.23-.273.153-.49.373-.65.66a1.99 1.99 0 00-.23.97c0 .373.077.703.23.99.16.28.377.497.65.65.28.153.593.23.94.23.3 0 .573-.063.82-.19s.453-.317.62-.57l.73.46c-.207.367-.5.65-.88.85-.373.193-.8.29-1.28.29zm8.399 0a2.97 2.97 0 01-1.45-.35 2.585 2.585 0 01-.99-.96c-.24-.413-.36-.88-.36-1.4 0-.52.12-.983.36-1.39.24-.413.57-.733.99-.96a2.97 2.97 0 011.45-.35c.48 0 .906.097 1.28.29.38.193.673.473.88.84l-.73.47a1.639 1.639 0 00-.62-.57 1.769 1.769 0 00-.82-.19c-.347 0-.66.077-.94.23-.274.153-.49.373-.65.66a1.98 1.98 0 00-.23.97c0 .373.076.703.23.99.16.28.376.497.65.65.28.153.593.23.94.23.3 0 .573-.063.82-.19.246-.127.453-.317.62-.57l.73.46c-.207.367-.5.65-.88.85-.374.193-.8.29-1.28.29zm9.512-5.36V30h-.87v-3.87l-1.98 3.27h-.42l-1.96-3.28V30h-.88v-5.3h.99l2.08 3.58 2.14-3.58h.9zm6.789 0v4.58c0 .927-.217 1.61-.65 2.05-.433.447-1.083.67-1.95.67-.473 0-.927-.07-1.36-.21a2.7 2.7 0 01-1.05-.58l.47-.74c.233.213.513.38.84.5.333.12.683.18 1.05.18.58 0 1.007-.147 1.28-.44.273-.287.41-.73.41-1.33v-.39c-.193.253-.443.45-.75.59-.307.133-.64.2-1 .2-.707 0-1.263-.193-1.67-.58-.407-.387-.61-.96-.61-1.72V24.7h.96v2.67c0 .507.123.893.37 1.16.247.26.6.39 1.06.39.507 0 .907-.153 1.2-.46.293-.307.44-.74.44-1.3V24.7h.96zm4.63 2.54c.353.093.626.243.82.45.193.207.29.463.29.77 0 .313-.107.593-.32.84-.214.24-.51.43-.89.57-.374.133-.794.2-1.26.2-.394 0-.78-.05-1.16-.15a3.59 3.59 0 01-1-.45l.29-.73c.253.16.543.287.87.38.326.087.656.13.99.13.453 0 .813-.077 1.08-.23.273-.16.41-.373.41-.64a.631.631 0 00-.33-.57c-.214-.133-.517-.2-.91-.2h-.97v-.69h.9c.36 0 .643-.063.85-.19.206-.127.31-.3.31-.52 0-.24-.124-.427-.37-.56-.24-.133-.567-.2-.98-.2-.527 0-1.084.137-1.67.41l-.26-.74a4.442 4.442 0 012.03-.49c.426 0 .81.06 1.15.18.34.12.606.29.8.51.193.22.29.47.29.75 0 .26-.087.493-.26.7a1.612 1.612 0 01-.7.47zm7.399-2.54V30h-.92v-.78a1.93 1.93 0 01-.76.62c-.313.147-.657.22-1.03.22-.707 0-1.263-.193-1.67-.58-.407-.393-.61-.97-.61-1.73V24.7h.96v2.94c0 .513.123.903.37 1.17.247.26.6.39 1.06.39.507 0 .907-.153 1.2-.46.293-.307.44-.74.44-1.3V24.7h.96zm-99.941 13V43h-.92v-.78a1.93 1.93 0 01-.76.62c-.314.147-.657.22-1.03.22-.707 0-1.264-.193-1.67-.58-.407-.393-.61-.97-.61-1.73V37.7h.96v2.94c0 .513.123.903.37 1.17.246.26.6.39 1.06.39.506 0 .906-.153 1.2-.46.293-.307.44-.74.44-1.3V37.7h.96zm6.864 5.36c-.54 0-1.023-.117-1.45-.35a2.585 2.585 0 01-.99-.96c-.24-.413-.36-.88-.36-1.4 0-.52.12-.983.36-1.39.24-.413.57-.733.99-.96.427-.233.91-.35 1.45-.35.48 0 .907.097 1.28.29.38.193.674.473.88.84l-.73.47a1.631 1.631 0 00-.62-.57 1.768 1.768 0 00-.82-.19c-.346 0-.66.077-.94.23-.273.153-.49.373-.65.66a1.99 1.99 0 00-.23.97c0 .373.077.703.23.99.16.28.377.497.65.65.28.153.594.23.94.23.3 0 .574-.063.82-.19.247-.127.454-.317.62-.57l.73.46c-.206.367-.5.65-.88.85-.373.193-.8.29-1.28.29zm5.595 0c-.526 0-1-.117-1.42-.35a2.585 2.585 0 01-.99-.96 2.797 2.797 0 01-.35-1.4c0-.52.117-.983.35-1.39.24-.413.57-.733.99-.96a2.88 2.88 0 011.42-.35c.527 0 .997.117 1.41.35.42.227.747.547.98.96.24.407.36.87.36 1.39 0 .52-.12.987-.36 1.4a2.51 2.51 0 01-.98.96 2.82 2.82 0 01-1.41.35zm0-.84c.34 0 .644-.077.91-.23.274-.16.487-.38.64-.66.154-.287.23-.613.23-.98s-.076-.69-.23-.97a1.601 1.601 0 00-.64-.66 1.791 1.791 0 00-.91-.23c-.34 0-.646.077-.92.23-.266.153-.48.373-.64.66-.153.28-.23.603-.23.97s.077.693.23.98c.16.28.374.5.64.66.274.153.58.23.92.23zm6.196-1.46h-1.1V43h-.96v-5.3h.96v2.24h1.12l1.72-2.24h1.03l-2.01 2.55 2.15 2.75h-1.13l-1.78-2.24zm8.649-3.06V43h-.92v-.78a1.924 1.924 0 01-.76.62c-.313.147-.656.22-1.03.22-.706 0-1.263-.193-1.67-.58-.406-.393-.61-.97-.61-1.73V37.7h.96v2.94c0 .513.124.903.37 1.17.247.26.6.39 1.06.39.507 0 .907-.153 1.2-.46.294-.307.44-.74.44-1.3V37.7h.96zm7.865 5.3l-1.53-2.03-1.55 2.03h-1.07l2.09-2.71-1.99-2.59h1.07l1.46 1.91 1.45-1.91h1.05l-2 2.59 2.11 2.71h-1.09zm4.194.06c-.526 0-1-.117-1.42-.35a2.585 2.585 0 01-.99-.96 2.801 2.801 0 01-.35-1.4c0-.52.117-.983.35-1.39.24-.413.57-.733.99-.96a2.88 2.88 0 011.42-.35c.527 0 .997.117 1.41.35.42.227.747.547.98.96.24.407.36.87.36 1.39 0 .52-.12.987-.36 1.4a2.51 2.51 0 01-.98.96 2.82 2.82 0 01-1.41.35zm0-.84c.34 0 .644-.077.91-.23.274-.16.487-.38.64-.66.154-.287.23-.613.23-.98s-.076-.69-.23-.97a1.601 1.601 0 00-.64-.66 1.791 1.791 0 00-.91-.23c-.34 0-.646.077-.92.23-.266.153-.48.373-.64.66a1.99 1.99 0 00-.23.97c0 .367.077.693.23.98.16.28.374.5.64.66.274.153.58.23.92.23zm8.648-4.52V43h-.96v-4.46h-2.28l-.06 1.18c-.034.713-.097 1.31-.19 1.79-.094.473-.247.853-.46 1.14-.214.287-.51.43-.89.43-.174 0-.37-.03-.59-.09l.06-.81c.086.02.166.03.24.03a.65.65 0 00.6-.35c.133-.233.22-.51.26-.83.04-.32.076-.777.11-1.37l.09-1.96h4.07zm4.126 5.36c-.527 0-1-.117-1.42-.35a2.585 2.585 0 01-.99-.96 2.801 2.801 0 01-.35-1.4c0-.52.117-.983.35-1.39.24-.413.57-.733.99-.96.42-.233.893-.35 1.42-.35.527 0 .997.117 1.41.35.42.227.747.547.98.96.24.407.36.87.36 1.39 0 .52-.12.987-.36 1.4a2.51 2.51 0 01-.98.96 2.82 2.82 0 01-1.41.35zm0-.84c.34 0 .643-.077.91-.23.273-.16.487-.38.64-.66a2.05 2.05 0 00.23-.98c0-.367-.077-.69-.23-.97a1.607 1.607 0 00-.64-.66 1.794 1.794 0 00-.91-.23c-.34 0-.647.077-.92.23-.267.153-.48.373-.64.66a1.99 1.99 0 00-.23.97c0 .367.077.693.23.98.16.28.373.5.64.66.273.153.58.23.92.23zm9.176-4.52v4.58c0 .927-.23 1.61-.69 2.05-.46.447-1.147.67-2.06.67-.5 0-.977-.07-1.43-.21-.453-.133-.82-.327-1.1-.58l.46-.74c.247.213.55.38.91.5.367.127.743.19 1.13.19.62 0 1.077-.147 1.37-.44.3-.293.45-.74.45-1.34v-.42a2.17 2.17 0 01-.84.62c-.327.133-.683.2-1.07.2-.507 0-.967-.107-1.38-.32a2.468 2.468 0 01-.96-.91 2.579 2.579 0 01-.35-1.34c0-.5.117-.943.35-1.33.233-.393.553-.697.96-.91.413-.213.873-.32 1.38-.32.4 0 .77.073 1.11.22.347.147.63.363.85.65v-.82h.91zm-2.76 4.24c.347 0 .657-.073.93-.22.28-.147.497-.35.65-.61.16-.267.24-.567.24-.9 0-.513-.17-.927-.51-1.24-.34-.32-.777-.48-1.31-.48-.54 0-.98.16-1.32.48-.34.313-.51.727-.51 1.24 0 .333.077.633.23.9.16.26.377.463.65.61.28.147.597.22.95.22zm4.634-4.24h.96v2.25h3.02V37.7h.96V43h-.96v-2.22h-3.02V43h-.96v-5.3zm9.077 5.36c-.527 0-1-.117-1.42-.35a2.585 2.585 0 01-.99-.96 2.801 2.801 0 01-.35-1.4c0-.52.117-.983.35-1.39.24-.413.57-.733.99-.96.42-.233.893-.35 1.42-.35.527 0 .997.117 1.41.35.42.227.747.547.98.96.24.407.36.87.36 1.39 0 .52-.12.987-.36 1.4a2.51 2.51 0 01-.98.96 2.82 2.82 0 01-1.41.35zm0-.84c.34 0 .643-.077.91-.23.273-.16.487-.38.64-.66a2.05 2.05 0 00.23-.98c0-.367-.077-.69-.23-.97a1.607 1.607 0 00-.64-.66 1.794 1.794 0 00-.91-.23c-.34 0-.647.077-.92.23-.267.153-.48.373-.64.66a1.99 1.99 0 00-.23.97c0 .367.077.693.23.98.16.28.373.5.64.66.273.153.58.23.92.23zm8.036-3.68h-2.94V43h-.96v-5.3h3.9v.84zm3.019 4.52c-.527 0-1-.117-1.42-.35a2.585 2.585 0 01-.99-.96 2.79 2.79 0 01-.35-1.4c0-.52.116-.983.35-1.39.24-.413.57-.733.99-.96.42-.233.893-.35 1.42-.35.526 0 .996.117 1.41.35.42.227.746.547.98.96.24.407.36.87.36 1.39 0 .52-.12.987-.36 1.4-.234.407-.56.727-.98.96-.414.233-.884.35-1.41.35zm0-.84c.34 0 .643-.077.91-.23a1.7 1.7 0 00.64-.66 2.05 2.05 0 00.23-.98c0-.367-.077-.69-.23-.97a1.613 1.613 0 00-.64-.66 1.794 1.794 0 00-.91-.23c-.34 0-.647.077-.92.23-.267.153-.48.373-.64.66a1.98 1.98 0 00-.23.97c0 .367.076.693.23.98.16.28.373.5.64.66.273.153.58.23.92.23zM71.342 56.06c-.527 0-1-.117-1.42-.35a2.585 2.585 0 01-.99-.96 2.798 2.798 0 01-.35-1.4c0-.52.116-.983.35-1.39.24-.413.57-.733.99-.96.42-.233.893-.35 1.42-.35.526 0 .996.117 1.41.35.42.227.746.547.98.96.24.407.36.87.36 1.39 0 .52-.12.987-.36 1.4-.234.407-.56.727-.98.96-.414.233-.884.35-1.41.35zm0-.84c.34 0 .643-.077.91-.23a1.7 1.7 0 00.64-.66c.153-.287.23-.613.23-.98s-.077-.69-.23-.97a1.607 1.607 0 00-.64-.66 1.793 1.793 0 00-.91-.23c-.34 0-.647.077-.92.23-.267.153-.48.373-.64.66-.154.28-.23.603-.23.97s.076.693.23.98c.16.28.373.5.64.66.273.153.58.23.92.23zm10.766-4.57c.666 0 1.193.193 1.58.58.393.387.59.96.59 1.72V56h-.96v-2.94c0-.513-.12-.9-.36-1.16-.233-.26-.57-.39-1.01-.39-.487 0-.873.153-1.16.46-.287.3-.43.733-.43 1.3V56h-.96v-2.94c0-.513-.12-.9-.36-1.16-.233-.26-.57-.39-1.01-.39-.487 0-.874.153-1.16.46-.287.3-.43.733-.43 1.3V56h-.96v-5.3h.92v.79c.193-.273.447-.48.76-.62a2.49 2.49 0 011.07-.22c.413 0 .78.083 1.1.25.32.167.566.41.74.73.2-.307.477-.547.83-.72.36-.173.763-.26 1.21-.26zm8.698 3.11h-1.03V56h-.96v-2.24h-1.03L86.326 56h-1.14l1.82-2.74-1.68-2.56h1.02l1.43 2.24h1.04V50.7h.96v2.24h1.04l1.43-2.24h1.03l-1.68 2.57 1.82 2.73h-1.14l-1.47-2.24zm8.398-3.06V56h-.92v-.78a1.93 1.93 0 01-.76.62c-.313.147-.656.22-1.03.22-.706 0-1.263-.193-1.67-.58-.406-.393-.61-.97-.61-1.73V50.7h.96v2.94c0 .513.124.903.37 1.17.247.26.6.39 1.06.39.507 0 .907-.153 1.2-.46.294-.307.44-.74.44-1.3V50.7h.96zm7.98 0V56h-.87v-3.87l-1.98 3.27h-.42l-1.96-3.28V56h-.88v-5.3h.99l2.08 3.58 2.14-3.58h.9zm6.848 0V56h-.92v-.84a2.074 2.074 0 01-.81.67c-.327.153-.687.23-1.08.23-.513 0-.973-.113-1.38-.34a2.476 2.476 0 01-.96-.95c-.227-.413-.34-.887-.34-1.42 0-.533.113-1.003.34-1.41.233-.407.553-.723.96-.95.407-.227.867-.34 1.38-.34.38 0 .73.073 1.05.22.32.14.587.35.8.63v-.8h.96zm-2.73 4.52c.333 0 .637-.077.91-.23.273-.16.487-.38.64-.66a2.05 2.05 0 00.23-.98c0-.367-.077-.69-.23-.97a1.607 1.607 0 00-.64-.66 1.828 1.828 0 00-.91-.23c-.34 0-.647.077-.92.23-.267.153-.48.373-.64.66a1.99 1.99 0 00-.23.97c0 .367.077.693.23.98.16.28.373.5.64.66.273.153.58.23.92.23zm9.562.84c-.54 0-1.023-.117-1.45-.35a2.585 2.585 0 01-.99-.96c-.24-.413-.36-.88-.36-1.4 0-.52.12-.983.36-1.39.24-.413.57-.733.99-.96.427-.233.91-.35 1.45-.35.48 0 .907.097 1.28.29.38.193.673.473.88.84l-.73.47a1.631 1.631 0 00-.62-.57 1.769 1.769 0 00-.82-.19c-.347 0-.66.077-.94.23-.273.153-.49.373-.65.66a1.99 1.99 0 00-.23.97c0 .373.077.703.23.99.16.28.377.497.65.65.28.153.593.23.94.23.3 0 .573-.063.82-.19s.453-.317.62-.57l.73.46c-.207.367-.5.65-.88.85-.373.193-.8.29-1.28.29zm8.358 0c-.526 0-1-.117-1.42-.35a2.585 2.585 0 01-.99-.96 2.801 2.801 0 01-.35-1.4c0-.52.117-.983.35-1.39.24-.413.57-.733.99-.96a2.88 2.88 0 011.42-.35c.527 0 .997.117 1.41.35.42.227.747.547.98.96.24.407.36.87.36 1.39 0 .52-.12.987-.36 1.4a2.51 2.51 0 01-.98.96 2.82 2.82 0 01-1.41.35zm0-.84c.34 0 .644-.077.91-.23.274-.16.487-.38.64-.66.154-.287.23-.613.23-.98s-.076-.69-.23-.97a1.601 1.601 0 00-.64-.66 1.791 1.791 0 00-.91-.23c-.34 0-.646.077-.92.23-.266.153-.48.373-.64.66a1.99 1.99 0 00-.23.97c0 .367.077.693.23.98.16.28.374.5.64.66.274.153.58.23.92.23zm10.767-4.57c.666 0 1.193.193 1.58.58.393.387.59.96.59 1.72V56h-.96v-2.94c0-.513-.12-.9-.36-1.16-.234-.26-.57-.39-1.01-.39-.487 0-.874.153-1.16.46-.287.3-.43.733-.43 1.3V56h-.96v-2.94c0-.513-.12-.9-.36-1.16-.234-.26-.57-.39-1.01-.39-.487 0-.874.153-1.16.46-.287.3-.43.733-.43 1.3V56h-.96v-5.3h.92v.79a1.82 1.82 0 01.76-.62 2.49 2.49 0 011.07-.22c.413 0 .78.083 1.1.25.32.167.566.41.74.73.2-.307.476-.547.83-.72.36-.173.763-.26 1.21-.26zm5.938 3.11h-1.1V56h-.96v-5.3h.96v2.24h1.12l1.72-2.24h1.03l-2.01 2.55 2.15 2.75h-1.13l-1.78-2.24zm6.436-3.11c.533 0 1.003.113 1.41.34.413.227.73.547.95.96.227.407.34.877.34 1.41 0 .527-.11.997-.33 1.41-.22.407-.527.723-.92.95a2.65 2.65 0 01-1.35.34c-.4 0-.76-.07-1.08-.21a2.117 2.117 0 01-.8-.63v2.72h-.97v-4.57c0-.533.113-1.007.34-1.42.233-.413.557-.733.97-.96.42-.227.9-.34 1.44-.34zm-.03 4.57c.34 0 .647-.077.92-.23.273-.16.483-.38.63-.66.153-.287.23-.61.23-.97s-.077-.68-.23-.96a1.612 1.612 0 00-.63-.67 1.753 1.753 0 00-.92-.24c-.527 0-.953.173-1.28.52-.327.34-.49.787-.49 1.34 0 .367.073.693.22.98.153.28.363.5.63.66.267.153.573.23.92.23zm6.331.9c-.76 0-1.34-.18-1.74-.54-.393-.367-.59-.89-.59-1.57V50.7h.96v2.05c.154-.153.367-.283.64-.39.28-.107.6-.16.96-.16.647 0 1.15.167 1.51.5.367.327.55.787.55 1.38 0 .627-.206 1.123-.62 1.49-.413.367-.97.55-1.67.55zm3.06-5.42h.96V56h-.96v-5.3zm-3.05 4.69c.414 0 .734-.12.96-.36.234-.247.35-.56.35-.94 0-.353-.116-.64-.35-.86-.233-.22-.566-.33-1-.33-.313 0-.586.063-.82.19-.226.127-.4.303-.52.53v.47c0 .407.117.727.35.96.24.227.584.34 1.03.34zm12.496-4.74c.667 0 1.194.193 1.58.58.394.387.59.96.59 1.72V56h-.96v-2.94c0-.513-.12-.9-.36-1.16-.233-.26-.57-.39-1.01-.39-.486 0-.873.153-1.16.46-.286.3-.43.733-.43 1.3V56h-.96v-2.94c0-.513-.12-.9-.36-1.16-.233-.26-.57-.39-1.01-.39-.486 0-.873.153-1.16.46-.286.3-.43.733-.43 1.3V56h-.96v-5.3h.92v.79a1.83 1.83 0 01.76-.62c.314-.147.67-.22 1.07-.22.414 0 .78.083 1.1.25.32.167.567.41.74.73.2-.307.477-.547.83-.72a2.76 2.76 0 011.21-.26zm6.078 5.47c-.76 0-1.34-.18-1.74-.54-.393-.367-.59-.89-.59-1.57V50.7h.96v2.05a1.84 1.84 0 01.64-.39c.28-.107.6-.16.96-.16.647 0 1.15.167 1.51.5.367.327.55.787.55 1.38 0 .627-.207 1.123-.62 1.49-.413.367-.97.55-1.67.55zm3.06-5.42h.96V56h-.96v-5.3zm-3.05 4.69c.413 0 .733-.12.96-.36.233-.247.35-.56.35-.94 0-.353-.117-.64-.35-.86-.233-.22-.567-.33-1-.33a1.69 1.69 0 00-.82.19c-.227.127-.4.303-.52.53v.47c0 .407.117.727.35.96.24.227.583.34 1.03.34zm11.976-4.69V56h-.87v-3.87l-1.98 3.27h-.42l-1.96-3.28V56h-.88v-5.3h.99l2.08 3.58 2.14-3.58h.9zM63.544 69.06c-.54 0-1.023-.117-1.45-.35a2.585 2.585 0 01-.99-.96c-.24-.413-.36-.88-.36-1.4 0-.52.12-.983.36-1.39.24-.413.57-.733.99-.96.427-.233.91-.35 1.45-.35.48 0 .907.097 1.28.29.38.193.674.473.88.84l-.73.47a1.631 1.631 0 00-.62-.57 1.768 1.768 0 00-.82-.19c-.346 0-.66.077-.94.23-.273.153-.49.373-.65.66a1.99 1.99 0 00-.23.97c0 .373.077.703.23.99.16.28.377.497.65.65.28.153.594.23.94.23.3 0 .574-.063.82-.19.247-.127.454-.317.62-.57l.73.46c-.206.367-.5.65-.88.85-.373.193-.8.29-1.28.29zm5.696-.84c.633 0 1.143-.213 1.53-.64l.52.62a2.24 2.24 0 01-.89.64c-.354.147-.75.22-1.19.22-.56 0-1.057-.113-1.49-.34a2.527 2.527 0 01-1.01-.97 2.797 2.797 0 01-.35-1.4c0-.513.113-.977.34-1.39.233-.413.55-.733.95-.96.406-.233.863-.35 1.37-.35.48 0 .916.11 1.31.33.393.213.706.517.94.91.233.393.353.847.36 1.36l-4.21.82c.133.367.356.65.67.85.32.2.703.3 1.15.3zm-.22-3.76c-.334 0-.634.077-.9.23a1.59 1.59 0 00-.61.65 2 2 0 00-.22.96v.1l3.39-.64c-.087-.387-.28-.7-.58-.94-.3-.24-.66-.36-1.08-.36zm6.493-.81c.533 0 1.003.113 1.41.34.413.227.73.547.95.96.226.407.34.877.34 1.41 0 .527-.11.997-.33 1.41-.22.407-.527.723-.92.95-.394.227-.844.34-1.35.34-.4 0-.76-.07-1.08-.21a2.12 2.12 0 01-.8-.63v2.72h-.97v-4.57c0-.533.113-1.007.34-1.42a2.44 2.44 0 01.97-.96c.42-.227.9-.34 1.44-.34zm-.03 4.57c.34 0 .646-.077.92-.23.273-.16.483-.38.63-.66.153-.287.23-.61.23-.97s-.077-.68-.23-.96a1.608 1.608 0 00-.63-.67 1.753 1.753 0 00-.92-.24c-.527 0-.954.173-1.28.52-.327.34-.49.787-.49 1.34 0 .367.073.693.22.98.153.28.363.5.63.66.266.153.573.23.92.23zm9.17-4.52v4.58c0 .927-.23 1.61-.69 2.05-.46.447-1.146.67-2.06.67-.5 0-.976-.07-1.43-.21-.453-.133-.82-.327-1.1-.58l.46-.74c.247.213.55.38.91.5.367.127.744.19 1.13.19.62 0 1.077-.147 1.37-.44.3-.293.45-.74.45-1.34v-.42c-.226.273-.506.48-.84.62-.326.133-.683.2-1.07.2-.506 0-.966-.107-1.38-.32a2.472 2.472 0 01-.96-.91 2.576 2.576 0 01-.35-1.34c0-.5.117-.943.35-1.33a2.38 2.38 0 01.96-.91c.414-.213.874-.32 1.38-.32.4 0 .77.073 1.11.22.347.147.63.363.85.65v-.82h.91zm-2.76 4.24c.347 0 .657-.073.93-.22.28-.147.497-.35.65-.61.16-.267.24-.567.24-.9 0-.513-.17-.927-.51-1.24-.34-.32-.776-.48-1.31-.48-.54 0-.98.16-1.32.48-.34.313-.51.727-.51 1.24 0 .333.077.633.23.9.16.26.377.463.65.61.28.147.597.22.95.22zm10.295.22v2.11h-.91V69h-4.75v-5.3h.96v4.46h2.9V63.7h.96v4.46h.84zm3.614.06c.633 0 1.143-.213 1.53-.64l.52.62c-.233.28-.53.493-.89.64a3.07 3.07 0 01-1.19.22c-.56 0-1.057-.113-1.49-.34a2.527 2.527 0 01-1.01-.97 2.797 2.797 0 01-.35-1.4c0-.513.113-.977.34-1.39.233-.413.55-.733.95-.96.407-.233.863-.35 1.37-.35.48 0 .917.11 1.31.33.393.213.707.517.94.91.233.393.353.847.36 1.36l-4.21.82c.133.367.357.65.67.85.32.2.703.3 1.15.3zm-.22-3.76c-.333 0-.633.077-.9.23-.26.153-.463.37-.61.65a2 2 0 00-.22.96v.1l3.39-.64c-.087-.387-.28-.7-.58-.94-.3-.24-.66-.36-1.08-.36zm10.083-.76V69h-.87v-3.87l-1.98 3.27h-.42l-1.96-3.28V69h-.88v-5.3h.99l2.08 3.58 2.14-3.58h.9zm9.384 0V69h-.92v-.78a1.93 1.93 0 01-.76.62c-.313.147-.657.22-1.03.22-.707 0-1.263-.193-1.67-.58-.407-.393-.61-.97-.61-1.73V63.7h.96v2.94c0 .513.123.903.37 1.17.247.26.6.39 1.06.39.507 0 .907-.153 1.2-.46.293-.307.44-.74.44-1.3V63.7h.96zm7.425 2.54c.353.093.626.243.82.45.193.207.29.463.29.77 0 .313-.107.593-.32.84-.214.24-.51.43-.89.57-.374.133-.794.2-1.26.2-.394 0-.78-.05-1.16-.15a3.59 3.59 0 01-1-.45l.29-.73c.253.16.543.287.87.38.326.087.656.13.99.13.453 0 .813-.077 1.08-.23.273-.16.41-.373.41-.64a.631.631 0 00-.33-.57c-.214-.133-.517-.2-.91-.2h-.97v-.69h.9c.36 0 .643-.063.85-.19.206-.127.31-.3.31-.52 0-.24-.124-.427-.37-.56-.24-.133-.567-.2-.98-.2-.527 0-1.084.137-1.67.41l-.26-.74a4.442 4.442 0 012.03-.49c.426 0 .81.06 1.15.18.34.12.606.29.8.51.193.22.29.47.29.75 0 .26-.087.493-.26.7a1.612 1.612 0 01-.7.47zm7.549-2.54V69h-.92v-.84a2.074 2.074 0 01-.81.67 2.51 2.51 0 01-1.08.23c-.513 0-.973-.113-1.38-.34a2.49 2.49 0 01-.96-.95 2.912 2.912 0 01-.34-1.42c0-.533.114-1.003.34-1.41a2.49 2.49 0 01.96-.95c.407-.227.867-.34 1.38-.34.38 0 .73.073 1.05.22.32.14.587.35.8.63v-.8h.96zm-2.73 4.52c.334 0 .637-.077.91-.23.274-.16.487-.38.64-.66.154-.287.23-.613.23-.98s-.076-.69-.23-.97a1.601 1.601 0 00-.64-.66 1.825 1.825 0 00-.91-.23c-.34 0-.646.077-.92.23-.266.153-.48.373-.64.66a1.99 1.99 0 00-.23.97c0 .367.077.693.23.98.16.28.374.5.64.66.274.153.58.23.92.23zm7.267-4.34c.493 0 .933.11 1.32.33.386.22.686.527.9.92.22.387.33.83.33 1.33 0 .513-.117.97-.35 1.37-.227.393-.55.7-.97.92-.414.22-.887.33-1.42.33-.9 0-1.597-.307-2.09-.92-.487-.62-.73-1.49-.73-2.61 0-1.087.223-1.937.67-2.55.446-.62 1.13-1.03 2.05-1.23l2.42-.54.14.88-2.23.48c-.694.153-1.21.413-1.55.78-.34.367-.534.893-.58 1.58.226-.34.52-.603.88-.79.36-.187.763-.28 1.21-.28zm-.17 4.4c.34 0 .64-.077.9-.23.266-.153.473-.363.62-.63.146-.273.22-.583.22-.93 0-.527-.16-.95-.48-1.27-.32-.32-.74-.48-1.26-.48s-.944.16-1.27.48c-.32.32-.48.743-.48 1.27 0 .347.073.657.22.93.153.267.363.477.63.63.266.153.566.23.9.23zm6.361.78c-.527 0-1-.117-1.42-.35a2.585 2.585 0 01-.99-.96 2.79 2.79 0 01-.35-1.4c0-.52.116-.983.35-1.39.24-.413.57-.733.99-.96.42-.233.893-.35 1.42-.35.526 0 .996.117 1.41.35.42.227.746.547.98.96.24.407.36.87.36 1.39 0 .52-.12.987-.36 1.4-.234.407-.56.727-.98.96-.414.233-.884.35-1.41.35zm0-.84c.34 0 .643-.077.91-.23a1.7 1.7 0 00.64-.66 2.05 2.05 0 00.23-.98c0-.367-.077-.69-.23-.97a1.613 1.613 0 00-.64-.66 1.794 1.794 0 00-.91-.23c-.34 0-.647.077-.92.23-.267.153-.48.373-.64.66a1.98 1.98 0 00-.23.97c0 .367.076.693.23.98.16.28.373.5.64.66.273.153.58.23.92.23zm10.766-4.57c.667 0 1.193.193 1.58.58.393.387.59.96.59 1.72V69h-.96v-2.94c0-.513-.12-.9-.36-1.16-.233-.26-.57-.39-1.01-.39-.487 0-.873.153-1.16.46-.287.3-.43.733-.43 1.3V69h-.96v-2.94c0-.513-.12-.9-.36-1.16-.233-.26-.57-.39-1.01-.39-.487 0-.873.153-1.16.46-.287.3-.43.733-.43 1.3V69h-.96v-5.3h.92v.79c.193-.273.447-.48.76-.62a2.49 2.49 0 011.07-.22c.413 0 .78.083 1.1.25.32.167.567.41.74.73.2-.307.477-.547.83-.72.36-.173.763-.26 1.21-.26zm6.148 5.41c-.527 0-1-.117-1.42-.35a2.585 2.585 0 01-.99-.96 2.801 2.801 0 01-.35-1.4c0-.52.117-.983.35-1.39.24-.413.57-.733.99-.96.42-.233.893-.35 1.42-.35.527 0 .997.117 1.41.35.42.227.747.547.98.96.24.407.36.87.36 1.39 0 .52-.12.987-.36 1.4a2.51 2.51 0 01-.98.96 2.82 2.82 0 01-1.41.35zm0-.84c.34 0 .643-.077.91-.23.273-.16.487-.38.64-.66a2.05 2.05 0 00.23-.98c0-.367-.077-.69-.23-.97a1.607 1.607 0 00-.64-.66 1.794 1.794 0 00-.91-.23c-.34 0-.647.077-.92.23-.267.153-.48.373-.64.66a1.99 1.99 0 00-.23.97c0 .367.077.693.23.98.16.28.373.5.64.66.273.153.58.23.92.23zm8.966-4.52V69h-.92v-.78a1.93 1.93 0 01-.76.62c-.313.147-.657.22-1.03.22-.707 0-1.263-.193-1.67-.58-.407-.393-.61-.97-.61-1.73V63.7h.96v2.94c0 .513.123.903.37 1.17.247.26.6.39 1.06.39.507 0 .907-.153 1.2-.46.293-.307.44-.74.44-1.3V63.7h.96zm-2.5-.69c-.493 0-.877-.117-1.15-.35-.273-.24-.413-.583-.42-1.03h.65c.007.247.09.447.25.6.167.147.387.22.66.22s.493-.073.66-.22a.809.809 0 00.26-.6h.67c-.007.447-.15.79-.43 1.03-.28.233-.663.35-1.15.35zm9.325 6.05c-.527 0-1-.117-1.42-.35a2.585 2.585 0 01-.99-.96 2.801 2.801 0 01-.35-1.4c0-.52.117-.983.35-1.39.24-.413.57-.733.99-.96.42-.233.893-.35 1.42-.35.527 0 .997.117 1.41.35.42.227.747.547.98.96.24.407.36.87.36 1.39 0 .52-.12.987-.36 1.4a2.51 2.51 0 01-.98.96 2.82 2.82 0 01-1.41.35zm0-.84c.34 0 .643-.077.91-.23.273-.16.487-.38.64-.66a2.05 2.05 0 00.23-.98c0-.367-.077-.69-.23-.97a1.607 1.607 0 00-.64-.66 1.794 1.794 0 00-.91-.23c-.34 0-.647.077-.92.23-.267.153-.48.373-.64.66a1.99 1.99 0 00-.23.97c0 .367.077.693.23.98.16.28.373.5.64.66.273.153.58.23.92.23zm10.432-1.97c.686.173 1.03.603 1.03 1.29 0 .467-.177.827-.53 1.08-.347.253-.867.38-1.56.38h-2.55v-5.3h2.46c.626 0 1.116.12 1.47.36.353.233.53.567.53 1 0 .28-.077.523-.23.73a1.39 1.39 0 01-.62.46zm-2.67-.27h1.44c.366 0 .643-.067.83-.2a.662.662 0 00.29-.58c0-.507-.374-.76-1.12-.76h-1.44v1.54zm1.54 2.28c.4 0 .7-.063.9-.19.2-.127.3-.323.3-.59 0-.273-.094-.477-.28-.61-.18-.133-.467-.2-.86-.2h-1.6v1.59h1.54zm8.642-4.56V69h-.92v-.84a2.074 2.074 0 01-.81.67 2.51 2.51 0 01-1.08.23c-.513 0-.973-.113-1.38-.34a2.49 2.49 0 01-.96-.95 2.912 2.912 0 01-.34-1.42c0-.533.114-1.003.34-1.41a2.49 2.49 0 01.96-.95c.407-.227.867-.34 1.38-.34.38 0 .73.073 1.05.22.32.14.587.35.8.63v-.8h.96zm-2.73 4.52c.334 0 .637-.077.91-.23.274-.16.487-.38.64-.66.154-.287.23-.613.23-.98s-.076-.69-.23-.97a1.601 1.601 0 00-.64-.66 1.825 1.825 0 00-.91-.23c-.34 0-.646.077-.92.23-.266.153-.48.373-.64.66a1.99 1.99 0 00-.23.97c0 .367.077.693.23.98.16.28.374.5.64.66.274.153.58.23.92.23zm6.877.84a2.97 2.97 0 01-1.45-.35 2.585 2.585 0 01-.99-.96c-.24-.413-.36-.88-.36-1.4 0-.52.12-.983.36-1.39.24-.413.57-.733.99-.96a2.97 2.97 0 011.45-.35c.48 0 .906.097 1.28.29.38.193.673.473.88.84l-.73.47a1.639 1.639 0 00-.62-.57 1.769 1.769 0 00-.82-.19c-.347 0-.66.077-.94.23-.274.153-.49.373-.65.66a1.98 1.98 0 00-.23.97c0 .373.076.703.23.99.16.28.376.497.65.65.28.153.593.23.94.23.3 0 .573-.063.82-.19.246-.127.453-.317.62-.57l.73.46c-.207.367-.5.65-.88.85-.374.193-.8.29-1.28.29zM198.8 62h1.13l-.19 4.79h-.76L198.8 62zm.57 7.06a.656.656 0 01-.47-.18.625.625 0 01-.19-.46c0-.18.063-.33.19-.45a.637.637 0 01.47-.19c.186 0 .34.063.46.19.12.12.18.27.18.45a.63.63 0 01-.64.64z" fill="#000"/></svg>