<svg width="396" height="174" fill="none" xmlns="http://www.w3.org/2000/svg"><path d="M281.711 159.607c173.003-41.012 90.199-93.743 48.797-114.516-41.403-19.707-82.51-34.62-217.364-30.36-168.568 5.327-104.068 89.562-85.436 108.846 18.685 19.339 81 77.043 254.003 36.03zM386.206 24.571c16.093-6.92 8.39-15.819 4.539-19.324-3.851-3.326-7.675-5.843-20.22-5.124-15.681.9-9.681 15.114-7.947 18.368 1.738 3.264 7.534 13.001 23.628 6.08z" fill="#000"/><path d="M141.572 49.765a8.09 8.09 0 00-3.27-1.035V58h-1.485v-9.27a8.107 8.107 0 00-3.285 1.035l-.525-1.185c1.34-.8 2.85-1.2 4.53-1.2 1.7 0 3.22.4 4.56 1.2l-.525 1.185zm4.682 8.325c-.79 0-1.5-.175-2.13-.525a3.877 3.877 0 01-1.485-1.44c-.35-.62-.525-1.32-.525-2.1s.175-1.475.525-2.085c.36-.62.855-1.1 1.485-1.44.63-.35 1.34-.525 2.13-.525.79 0 1.495.175 2.115.525.63.34 1.12.82 1.47 1.44.36.61.54 1.305.54 2.085s-.18 1.48-.54 2.1a3.77 3.77 0 01-1.47 1.44c-.62.35-1.325.525-2.115.525zm0-1.26c.51 0 .965-.115 1.365-.345.41-.24.73-.57.96-.99.23-.43.345-.92.345-1.47 0-.55-.115-1.035-.345-1.455-.23-.43-.55-.76-.96-.99-.4-.23-.855-.345-1.365-.345s-.97.115-1.38.345c-.4.23-.72.56-.96.99-.23.42-.345.905-.345 1.455s.115 1.04.345 1.47c.24.42.56.75.96.99.41.23.87.345 1.38.345zm13.171-2.19h-1.545V58h-1.44v-3.36h-1.545l-2.19 3.36h-1.71l2.73-4.11-2.52-3.84h1.53l2.145 3.36h1.56v-3.36h1.44v3.36h1.56l2.145-3.36h1.545l-2.52 3.855L163.34 58h-1.71l-2.205-3.36zm8.791 2.19c.95 0 1.715-.32 2.295-.96l.78.93c-.35.42-.795.74-1.335.96-.53.22-1.125.33-1.785.33-.84 0-1.585-.17-2.235-.51a3.792 3.792 0 01-1.515-1.455c-.35-.62-.525-1.32-.525-2.1 0-.77.17-1.465.51-2.085.35-.62.825-1.1 1.425-1.44.61-.35 1.295-.525 2.055-.525.72 0 1.375.165 1.965.495.59.32 1.06.775 1.41 1.365.35.59.53 1.27.54 2.04l-6.315 1.23c.2.55.535.975 1.005 1.275.48.3 1.055.45 1.725.45zm-.33-5.64c-.5 0-.95.115-1.35.345-.39.23-.695.555-.915.975-.22.41-.33.89-.33 1.44v.15l5.085-.96c-.13-.58-.42-1.05-.87-1.41-.45-.36-.99-.54-1.62-.54zM182.839 58l-2.295-3.045L178.219 58h-1.605l3.135-4.065-2.985-3.885h1.605l2.19 2.865 2.175-2.865h1.575l-3 3.885L184.474 58h-1.635zm6.291.09c-.79 0-1.5-.175-2.13-.525a3.877 3.877 0 01-1.485-1.44c-.35-.62-.525-1.32-.525-2.1s.175-1.475.525-2.085c.36-.62.855-1.1 1.485-1.44.63-.35 1.34-.525 2.13-.525.79 0 1.495.175 2.115.525.63.34 1.12.82 1.47 1.44.36.61.54 1.305.54 2.085s-.18 1.48-.54 2.1a3.77 3.77 0 01-1.47 1.44c-.62.35-1.325.525-2.115.525zm0-1.26c.51 0 .965-.115 1.365-.345.41-.24.73-.57.96-.99.23-.43.345-.92.345-1.47 0-.55-.115-1.035-.345-1.455-.23-.43-.55-.76-.96-.99-.4-.23-.855-.345-1.365-.345s-.97.115-1.38.345c-.4.23-.72.56-.96.99-.23.42-.345.905-.345 1.455s.115 1.04.345 1.47c.24.42.56.75.96.99.41.23.87.345 1.38.345zm12.549-6.78V58h-1.44v-3.21c-.86.4-1.715.6-2.565.6-.99 0-1.755-.23-2.295-.69-.54-.46-.81-1.15-.81-2.07v-2.58h1.44v2.49c0 .55.17.965.51 1.245.35.28.835.42 1.455.42.7 0 1.455-.175 2.265-.525v-3.63h1.44zm6.351 6.78c.95 0 1.715-.32 2.295-.96l.78.93c-.35.42-.795.74-1.335.96-.53.22-1.125.33-1.785.33-.84 0-1.585-.17-2.235-.51a3.792 3.792 0 01-1.515-1.455c-.35-.62-.525-1.32-.525-2.1 0-.77.17-1.465.51-2.085.35-.62.825-1.1 1.425-1.44.61-.35 1.295-.525 2.055-.525.72 0 1.375.165 1.965.495.59.32 1.06.775 1.41 1.365.35.59.53 1.27.54 2.04l-6.315 1.23c.2.55.535.975 1.005 1.275.48.3 1.055.45 1.725.45zm-.33-5.64c-.5 0-.95.115-1.35.345-.39.23-.695.555-.915.975-.22.41-.33.89-.33 1.44v.15l5.085-.96c-.13-.58-.42-1.05-.87-1.41-.45-.36-.99-.54-1.62-.54zm17.285-1.14V58H213.66v-7.95h1.44v6.69h3.51v-6.69h1.44v6.69h3.495v-6.69h1.44zm6.111 8.13c-1.13 0-2-.275-2.61-.825-.6-.55-.9-1.33-.9-2.34V50.05h1.44v3.075c.26-.26.61-.46 1.05-.6.45-.15.935-.225 1.455-.225.99 0 1.76.25 2.31.75s.825 1.19.825 2.07c0 .95-.315 1.7-.945 2.25-.63.54-1.505.81-2.625.81zm.015-1.095c.65 0 1.16-.175 1.53-.525.37-.35.555-.82.555-1.41 0-.56-.18-1-.54-1.32-.36-.32-.865-.48-1.515-.48-.48 0-.905.095-1.275.285-.37.19-.65.455-.84.795v.705c0 .61.185 1.09.555 1.44.37.34.88.51 1.53.51zM68.923 66.05V74h-1.44v-6.69h-4.485V74h-1.44v-7.95h7.365zm6.191 8.04c-.79 0-1.5-.175-2.13-.525a3.877 3.877 0 01-1.485-1.44c-.35-.62-.525-1.32-.525-2.1s.175-1.475.525-2.085c.36-.62.855-1.1 1.485-1.44.63-.35 1.34-.525 2.13-.525.79 0 1.495.175 2.115.525.63.34 1.12.82 1.47 1.44.36.61.54 1.305.54 2.085s-.18 1.48-.54 2.1a3.77 3.77 0 01-1.47 1.44c-.62.35-1.325.525-2.115.525zm0-1.26c.51 0 .965-.115 1.365-.345.41-.24.73-.57.96-.99.23-.43.345-.92.345-1.47 0-.55-.115-1.035-.345-1.455-.23-.43-.55-.76-.96-.99-.4-.23-.855-.345-1.365-.345s-.97.115-1.38.345c-.4.23-.72.56-.96.99-.23.42-.345.905-.345 1.455s.115 1.04.345 1.47c.24.42.56.75.96.99.41.23.87.345 1.38.345zm13.764-6.78v6.87c0 1.39-.345 2.415-1.035 3.075-.69.67-1.72 1.005-3.09 1.005-.75 0-1.465-.105-2.145-.315-.68-.2-1.23-.49-1.65-.87l.69-1.11c.37.32.825.57 1.365.75.55.19 1.115.285 1.695.285.93 0 1.615-.22 2.055-.66.45-.44.675-1.11.675-2.01v-.63c-.34.41-.76.72-1.26.93-.49.2-1.025.3-1.605.3-.76 0-1.45-.16-2.07-.48a3.71 3.71 0 01-1.44-1.365c-.35-.59-.525-1.26-.525-2.01 0-.75.175-1.415.525-1.995.35-.59.83-1.045 1.44-1.365.62-.32 1.31-.48 2.07-.48.6 0 1.155.11 1.665.33.52.22.945.545 1.275.975v-1.23h1.365zm-4.14 6.36c.52 0 .985-.11 1.395-.33.42-.22.745-.525.975-.915.24-.4.36-.85.36-1.35 0-.77-.255-1.39-.765-1.86-.51-.48-1.165-.72-1.965-.72-.81 0-1.47.24-1.98.72-.51.47-.765 1.09-.765 1.86 0 .5.115.95.345 1.35.24.39.565.695.975.915.42.22.895.33 1.425.33zm10.506.42c.95 0 1.715-.32 2.295-.96l.78.93c-.35.42-.795.74-1.335.96-.53.22-1.125.33-1.785.33-.84 0-1.585-.17-2.235-.51a3.792 3.792 0 01-1.515-1.455c-.35-.62-.525-1.32-.525-2.1 0-.77.17-1.465.51-2.085.35-.62.825-1.1 1.425-1.44.61-.35 1.295-.525 2.055-.525.72 0 1.375.165 1.965.495.59.32 1.06.775 1.41 1.365.35.59.53 1.27.54 2.04l-6.315 1.23c.2.55.535.975 1.005 1.275.48.3 1.055.45 1.725.45zm-.33-5.64c-.5 0-.95.115-1.35.345-.39.23-.695.555-.915.975-.22.41-.33.89-.33 1.44v.15l5.085-.96c-.13-.58-.42-1.05-.87-1.41-.45-.36-.99-.54-1.62-.54zm12.653-1.14V74h-1.44v-6.69h-3.42l-.09 1.77c-.05 1.07-.145 1.965-.285 2.685-.14.71-.37 1.28-.69 1.71-.32.43-.765.645-1.335.645-.26 0-.555-.045-.885-.135l.09-1.215c.13.03.25.045.36.045.4 0 .7-.175.9-.525.2-.35.33-.765.39-1.245.06-.48.115-1.165.165-2.055l.135-2.94h6.105zm10.03 0V74h-1.38v-1.17c-.29.4-.67.71-1.14.93-.47.22-.985.33-1.545.33-1.06 0-1.895-.29-2.505-.87-.61-.59-.915-1.455-.915-2.595V66.05h1.44v4.41c0 .77.185 1.355.555 1.755.37.39.9.585 1.59.585.76 0 1.36-.23 1.8-.69.44-.46.66-1.11.66-1.95v-4.11h1.44zm12.748-.075c1 0 1.79.29 2.37.87.59.58.885 1.44.885 2.58V74h-1.44v-4.41c0-.77-.18-1.35-.54-1.74-.35-.39-.855-.585-1.515-.585-.73 0-1.31.23-1.74.69-.43.45-.645 1.1-.645 1.95V74h-1.44v-4.41c0-.77-.18-1.35-.54-1.74-.35-.39-.855-.585-1.515-.585-.73 0-1.31.23-1.74.69-.43.45-.645 1.1-.645 1.95V74h-1.44v-7.95h1.38v1.185c.29-.41.67-.72 1.14-.93.47-.22 1.005-.33 1.605-.33.62 0 1.17.125 1.65.375s.85.615 1.11 1.095c.3-.46.715-.82 1.245-1.08.54-.26 1.145-.39 1.815-.39zm9.132 8.205c-1.13 0-2-.275-2.61-.825-.6-.55-.9-1.33-.9-2.34V66.05h1.44v3.075c.26-.26.61-.46 1.05-.6.45-.15.935-.225 1.455-.225.99 0 1.76.25 2.31.75s.825 1.19.825 2.07c0 .95-.315 1.7-.945 2.25-.63.54-1.505.81-2.625.81zm.015-1.095c.65 0 1.16-.175 1.53-.525.37-.35.555-.82.555-1.41 0-.56-.18-1-.54-1.32-.36-.32-.865-.48-1.515-.48-.48 0-.905.095-1.275.285-.37.19-.65.455-.84.795v.705c0 .61.185 1.09.555 1.44.37.34.88.51 1.53.51zm8.91 1.005c-.81 0-1.535-.175-2.175-.525a3.877 3.877 0 01-1.485-1.44c-.36-.62-.54-1.32-.54-2.1s.18-1.475.54-2.085c.36-.62.855-1.1 1.485-1.44.64-.35 1.365-.525 2.175-.525.72 0 1.36.145 1.92.435.57.29 1.01.71 1.32 1.26l-1.095.705c-.25-.38-.56-.665-.93-.855-.37-.19-.78-.285-1.23-.285-.52 0-.99.115-1.41.345-.41.23-.735.56-.975.99-.23.42-.345.905-.345 1.455 0 .56.115 1.055.345 1.485.24.42.565.745.975.975.42.23.89.345 1.41.345.45 0 .86-.095 1.23-.285.37-.19.68-.475.93-.855l1.095.69c-.31.55-.75.975-1.32 1.275-.56.29-1.2.435-1.92.435zm11.23-8.04V74h-1.29v-2.52h-2.475l-1.74 2.52h-1.545l1.935-2.715c-.6-.18-1.06-.475-1.38-.885-.32-.42-.48-.94-.48-1.56 0-.91.31-1.6.93-2.07.62-.48 1.475-.72 2.565-.72h3.48zm-5.505 2.835c0 .53.165.925.495 1.185.34.25.845.375 1.515.375h2.205V67.31h-2.145c-1.38 0-2.07.525-2.07 1.575zm17.758.99c1.03.26 1.545.905 1.545 1.935 0 .7-.265 1.24-.795 1.62-.52.38-1.3.57-2.34.57h-3.825v-7.95h3.69c.94 0 1.675.18 2.205.54.53.35.795.85.795 1.5 0 .42-.115.785-.345 1.095-.22.3-.53.53-.93.69zm-4.005-.405h2.16c.55 0 .965-.1 1.245-.3.29-.2.435-.49.435-.87 0-.76-.56-1.14-1.68-1.14h-2.16v2.31zm2.31 3.42c.6 0 1.05-.095 1.35-.285.3-.19.45-.485.45-.885 0-.41-.14-.715-.42-.915-.27-.2-.7-.3-1.29-.3h-2.4v2.385h2.31zm12.859-6.84V74h-1.44v-6.69h-4.485V74h-1.44v-7.95h7.365zm6.341 6.78c.95 0 1.715-.32 2.295-.96l.78.93c-.35.42-.795.74-1.335.96-.53.22-1.125.33-1.785.33-.84 0-1.585-.17-2.235-.51a3.792 3.792 0 01-1.515-1.455c-.35-.62-.525-1.32-.525-2.1 0-.77.17-1.465.51-2.085.35-.62.825-1.1 1.425-1.44.61-.35 1.295-.525 2.055-.525.72 0 1.375.165 1.965.495.59.32 1.06.775 1.41 1.365.35.59.53 1.27.54 2.04l-6.315 1.23c.2.55.535.975 1.005 1.275.48.3 1.055.45 1.725.45zm-.33-5.64c-.5 0-.95.115-1.35.345-.39.23-.695.555-.915.975-.22.41-.33.89-.33 1.44v.15l5.085-.96c-.13-.58-.42-1.05-.87-1.41-.45-.36-.99-.54-1.62-.54zm12.305-1.14V74h-1.44v-3.21c-.86.4-1.715.6-2.565.6-.99 0-1.755-.23-2.295-.69-.54-.46-.81-1.15-.81-2.07v-2.58h1.44v2.49c0 .55.17.965.51 1.245.35.28.835.42 1.455.42.7 0 1.455-.175 2.265-.525v-3.63h1.44zm12.74-.075c1 0 1.79.29 2.37.87.59.58.885 1.44.885 2.58V74h-1.44v-4.41c0-.77-.18-1.35-.54-1.74-.35-.39-.855-.585-1.515-.585-.73 0-1.31.23-1.74.69-.43.45-.645 1.1-.645 1.95V74h-1.44v-4.41c0-.77-.18-1.35-.54-1.74-.35-.39-.855-.585-1.515-.585-.73 0-1.31.23-1.74.69-.43.45-.645 1.1-.645 1.95V74h-1.44v-7.95h1.38v1.185c.29-.41.67-.72 1.14-.93.47-.22 1.005-.33 1.605-.33.62 0 1.17.125 1.65.375s.85.615 1.11 1.095c.3-.46.715-.82 1.245-1.08.54-.26 1.145-.39 1.815-.39zm13.287.075V74h-1.38v-1.26c-.32.44-.725.775-1.215 1.005-.49.23-1.03.345-1.62.345-.77 0-1.46-.17-2.07-.51a3.72 3.72 0 01-1.44-1.425c-.34-.62-.51-1.33-.51-2.13 0-.8.17-1.505.51-2.115a3.72 3.72 0 011.44-1.425c.61-.34 1.3-.51 2.07-.51.57 0 1.095.11 1.575.33.48.21.88.525 1.2.945v-1.2h1.44zm-4.095 6.78c.5 0 .955-.115 1.365-.345.41-.24.73-.57.96-.99.23-.43.345-.92.345-1.47 0-.55-.115-1.035-.345-1.455-.23-.43-.55-.76-.96-.99a2.742 2.742 0 00-1.365-.345c-.51 0-.97.115-1.38.345-.4.23-.72.56-.96.99-.23.42-.345.905-.345 1.455s.115 1.04.345 1.47c.24.42.56.75.96.99.41.23.87.345 1.38.345zm13.674-6.78V74h-1.44v-6.69h-3.42l-.09 1.77c-.05 1.07-.145 1.965-.285 2.685-.14.71-.37 1.28-.69 1.71-.32.43-.765.645-1.335.645-.26 0-.555-.045-.885-.135l.09-1.215c.13.03.25.045.36.045.4 0 .7-.175.9-.525.2-.35.33-.765.39-1.245.06-.48.115-1.165.165-2.055l.135-2.94h6.105zm6.34 6.78c.95 0 1.715-.32 2.295-.96l.78.93c-.35.42-.795.74-1.335.96-.53.22-1.125.33-1.785.33-.84 0-1.585-.17-2.235-.51a3.792 3.792 0 01-1.515-1.455c-.35-.62-.525-1.32-.525-2.1 0-.77.17-1.465.51-2.085.35-.62.825-1.1 1.425-1.44.61-.35 1.295-.525 2.055-.525.72 0 1.375.165 1.965.495.59.32 1.06.775 1.41 1.365.35.59.53 1.27.54 2.04l-6.315 1.23c.2.55.535.975 1.005 1.275.48.3 1.055.45 1.725.45zm-.33-5.64c-.5 0-.95.115-1.35.345-.39.23-.695.555-.915.975-.22.41-.33.89-.33 1.44v.15l5.085-.96c-.13-.58-.42-1.05-.87-1.41-.45-.36-.99-.54-1.62-.54zm5.959-1.14h1.44v3.375h4.53V66.05h1.44V74h-1.44v-3.33h-4.53V74h-1.44v-7.95zm17.455 0V74h-1.38v-1.17c-.29.4-.67.71-1.14.93-.47.22-.985.33-1.545.33-1.06 0-1.895-.29-2.505-.87-.61-.59-.915-1.455-.915-2.595V66.05h1.44v4.41c0 .77.185 1.355.555 1.755.37.39.9.585 1.59.585.76 0 1.36-.23 1.8-.69.44-.46.66-1.11.66-1.95v-4.11h1.44zm9.179 0V74h-1.29v-2.52h-2.475l-1.74 2.52h-1.545l1.935-2.715c-.6-.18-1.06-.475-1.38-.885-.32-.42-.48-.94-.48-1.56 0-.91.31-1.6.93-2.07.62-.48 1.475-.72 2.565-.72h3.48zm-5.505 2.835c0 .53.165.925.495 1.185.34.25.845.375 1.515.375h2.205V67.31h-2.145c-1.38 0-2.07.525-2.07 1.575zm17.48-2.835V74h-1.305v-5.805l-2.97 4.905h-.63l-2.94-4.92V74h-1.32v-7.95h1.485l3.12 5.37 3.21-5.37h1.35zm10.048 0V74h-1.38v-1.17c-.29.4-.67.71-1.14.93-.47.22-.985.33-1.545.33-1.06 0-1.895-.29-2.505-.87-.61-.59-.915-1.455-.915-2.595V66.05h1.44v4.41c0 .77.185 1.355.555 1.755.37.39.9.585 1.59.585.76 0 1.36-.23 1.8-.69.44-.46.66-1.11.66-1.95v-4.11h1.44zm5.033 4.635c0-.4.065-.75.195-1.05.14-.31.305-.57.495-.78.2-.21.46-.46.78-.75.4-.35.695-.65.885-.9.19-.26.285-.57.285-.93 0-.49-.19-.88-.57-1.17-.38-.3-.905-.45-1.575-.45-1.17 0-2.065.395-2.685 1.185l-1.095-.78c.42-.54.955-.955 1.605-1.245.66-.29 1.42-.435 2.28-.435 1.09 0 1.955.24 2.595.72.64.47.96 1.12.96 1.95 0 .41-.07.775-.21 1.095-.13.31-.29.57-.48.78-.19.21-.445.46-.765.75-.41.37-.715.695-.915.975-.19.28-.285.625-.285 1.035h-1.5zm.765 3.405a.986.986 0 01-.705-.27.967.967 0 01-.27-.69c0-.27.09-.495.27-.675a.958.958 0 01.705-.285c.28 0 .51.095.69.285.18.18.27.405.27.675s-.095.5-.285.69a.916.916 0 01-.675.27zM105.574 79.5V90h-1.47v-9.195h-6.09V90h-1.485V79.5h9.045zm6.814 2.475c.8 0 1.505.17 2.115.51.62.34 1.095.82 1.425 1.44.34.61.51 1.315.51 2.115 0 .79-.165 1.495-.495 2.115-.33.61-.79 1.085-1.38 1.425-.59.34-1.265.51-2.025.51-.6 0-1.14-.105-1.62-.315-.48-.22-.88-.535-1.2-.945v4.08h-1.455v-6.855c0-.8.17-1.51.51-2.13.35-.62.835-1.1 1.455-1.44.63-.34 1.35-.51 2.16-.51zm-.045 6.855c.51 0 .97-.115 1.38-.345.41-.24.725-.57.945-.99.23-.43.345-.915.345-1.455s-.115-1.02-.345-1.44a2.412 2.412 0 00-.945-1.005c-.4-.24-.86-.36-1.38-.36-.79 0-1.43.26-1.92.78-.49.51-.735 1.18-.735 2.01 0 .55.11 1.04.33 1.47.23.42.545.75.945.99.4.23.86.345 1.38.345zm13.442-6.78V90h-1.38v-1.17c-.29.4-.67.71-1.14.93-.47.22-.985.33-1.545.33-1.06 0-1.895-.29-2.505-.87-.61-.59-.915-1.455-.915-2.595V82.05h1.44v4.41c0 .77.185 1.355.555 1.755.37.39.9.585 1.59.585.76 0 1.36-.23 1.8-.69.44-.46.66-1.11.66-1.95v-4.11h1.44zm6.269 8.04c-.81 0-1.535-.175-2.175-.525a3.877 3.877 0 01-1.485-1.44c-.36-.62-.54-1.32-.54-2.1s.18-1.475.54-2.085c.36-.62.855-1.1 1.485-1.44.64-.35 1.365-.525 2.175-.525.72 0 1.36.145 1.92.435.57.29 1.01.71 1.32 1.26l-1.095.705c-.25-.38-.56-.665-.93-.855-.37-.19-.78-.285-1.23-.285-.52 0-.99.115-1.41.345-.41.23-.735.56-.975.99-.23.42-.345.905-.345 1.455 0 .56.115 1.055.345 1.485.24.42.565.745.975.975.42.23.89.345 1.41.345.45 0 .86-.095 1.23-.285.37-.19.68-.475.93-.855l1.095.69c-.31.55-.75.975-1.32 1.275-.56.29-1.2.435-1.92.435zm8.404.09c-1.14 0-2.01-.27-2.61-.81-.59-.55-.885-1.335-.885-2.355V82.05h1.44v3.075c.23-.23.55-.425.96-.585.42-.16.9-.24 1.44-.24.97 0 1.725.25 2.265.75.55.49.825 1.18.825 2.07 0 .94-.31 1.685-.93 2.235-.62.55-1.455.825-2.505.825zm4.59-8.13h1.44V90h-1.44v-7.95zm-4.575 7.035c.62 0 1.1-.18 1.44-.54.35-.37.525-.84.525-1.41 0-.53-.175-.96-.525-1.29-.35-.33-.85-.495-1.5-.495-.47 0-.88.095-1.23.285-.34.19-.6.455-.78.795v.705c0 .61.175 1.09.525 1.44.36.34.875.51 1.545.51zm15.624-7.035V90h-1.44v-6.69h-3.42l-.09 1.77c-.05 1.07-.145 1.965-.285 2.685-.14.71-.37 1.28-.69 1.71-.32.43-.765.645-1.335.645-.26 0-.555-.045-.885-.135l.09-1.215c.13.03.25.045.36.045.4 0 .7-.175.9-.525.2-.35.33-.765.39-1.245.06-.48.115-1.165.165-2.055l.135-2.94h6.105zm10.255 0V90h-1.38v-1.26c-.32.44-.725.775-1.215 1.005-.49.23-1.03.345-1.62.345-.77 0-1.46-.17-2.07-.51a3.72 3.72 0 01-1.44-1.425c-.34-.62-.51-1.33-.51-2.13 0-.8.17-1.505.51-2.115a3.72 3.72 0 011.44-1.425c.61-.34 1.3-.51 2.07-.51.57 0 1.095.11 1.575.33.48.21.88.525 1.2.945v-1.2h1.44zm-4.095 6.78c.5 0 .955-.115 1.365-.345.41-.24.73-.57.96-.99.23-.43.345-.92.345-1.47 0-.55-.115-1.035-.345-1.455-.23-.43-.55-.76-.96-.99a2.742 2.742 0 00-1.365-.345c-.51 0-.97.115-1.38.345-.4.23-.72.56-.96.99-.23.42-.345.905-.345 1.455s.115 1.04.345 1.47c.24.42.56.75.96.99.41.23.87.345 1.38.345zm14.094-6.78V90h-1.38v-1.17c-.29.4-.67.71-1.14.93-.47.22-.985.33-1.545.33-1.06 0-1.895-.29-2.505-.87-.61-.59-.915-1.455-.915-2.595V82.05h1.44v4.41c0 .77.185 1.355.555 1.755.37.39.9.585 1.59.585.76 0 1.36-.23 1.8-.69.44-.46.66-1.11.66-1.95v-4.11h1.44zm-3.75-1.035c-.74 0-1.315-.175-1.725-.525-.41-.36-.62-.875-.63-1.545h.975c.01.37.135.67.375.9.25.22.58.33.99.33.41 0 .74-.11.99-.33.25-.23.38-.53.39-.9h1.005c-.01.67-.225 1.185-.645 1.545-.42.35-.995.525-1.725.525zm10.583 1.035h1.44v3.375h4.53V82.05h1.44V90h-1.44v-3.33h-4.53V90h-1.44v-7.95zm17.68 0V90h-1.38v-1.26c-.32.44-.725.775-1.215 1.005-.49.23-1.03.345-1.62.345-.77 0-1.46-.17-2.07-.51a3.72 3.72 0 01-1.44-1.425c-.34-.62-.51-1.33-.51-2.13 0-.8.17-1.505.51-2.115a3.72 3.72 0 011.44-1.425c.61-.34 1.3-.51 2.07-.51.57 0 1.095.11 1.575.33.48.21.88.525 1.2.945v-1.2h1.44zm-4.095 6.78c.5 0 .955-.115 1.365-.345.41-.24.73-.57.96-.99.23-.43.345-.92.345-1.47 0-.55-.115-1.035-.345-1.455-.23-.43-.55-.76-.96-.99a2.742 2.742 0 00-1.365-.345c-.51 0-.97.115-1.38.345-.4.23-.72.56-.96.99-.23.42-.345.905-.345 1.455s.115 1.04.345 1.47c.24.42.56.75.96.99.41.23.87.345 1.38.345zm16.014-6.78V90h-1.305v-5.805l-2.97 4.905h-.63l-2.94-4.92V90h-1.32v-7.95h1.485l3.12 5.37 3.21-5.37h1.35zm10.236 8.04c-.79 0-1.5-.175-2.13-.525a3.877 3.877 0 01-1.485-1.44c-.35-.62-.525-1.32-.525-2.1s.175-1.475.525-2.085c.36-.62.855-1.1 1.485-1.44.63-.35 1.34-.525 2.13-.525.79 0 1.495.175 2.115.525.63.34 1.12.82 1.47 1.44.36.61.54 1.305.54 2.085s-.18 1.48-.54 2.1a3.77 3.77 0 01-1.47 1.44c-.62.35-1.325.525-2.115.525zm0-1.26c.51 0 .965-.115 1.365-.345.41-.24.73-.57.96-.99.23-.43.345-.92.345-1.47 0-.55-.115-1.035-.345-1.455-.23-.43-.55-.76-.96-.99-.4-.23-.855-.345-1.365-.345s-.97.115-1.38.345c-.4.23-.72.56-.96.99-.23.42-.345.905-.345 1.455s.115 1.04.345 1.47c.24.42.56.75.96.99.41.23.87.345 1.38.345zm16.15-6.855c1 0 1.79.29 2.37.87.59.58.885 1.44.885 2.58V90h-1.44v-4.41c0-.77-.18-1.35-.54-1.74-.35-.39-.855-.585-1.515-.585-.73 0-1.31.23-1.74.69-.43.45-.645 1.1-.645 1.95V90h-1.44v-4.41c0-.77-.18-1.35-.54-1.74-.35-.39-.855-.585-1.515-.585-.73 0-1.31.23-1.74.69-.43.45-.645 1.1-.645 1.95V90h-1.44v-7.95h1.38v1.185c.29-.41.67-.72 1.14-.93.47-.22 1.005-.33 1.605-.33.62 0 1.17.125 1.65.375s.85.615 1.11 1.095c.3-.46.715-.82 1.245-1.08.54-.26 1.145-.39 1.815-.39zm10.121 3.885c.53.14.94.365 1.23.675.29.31.435.695.435 1.155 0 .47-.16.89-.48 1.26-.32.36-.765.645-1.335.855-.56.2-1.19.3-1.89.3-.59 0-1.17-.075-1.74-.225a5.403 5.403 0 01-1.5-.675l.435-1.095c.38.24.815.43 1.305.57.49.13.985.195 1.485.195.68 0 1.22-.115 1.62-.345.41-.24.615-.56.615-.96 0-.37-.165-.655-.495-.855-.32-.2-.775-.3-1.365-.3h-1.455V85.38h1.35c.54 0 .965-.095 1.275-.285.31-.19.465-.45.465-.78 0-.36-.185-.64-.555-.84-.36-.2-.85-.3-1.47-.3-.79 0-1.625.205-2.505.615l-.39-1.11a6.668 6.668 0 013.045-.735c.64 0 1.215.09 1.725.27.51.18.91.435 1.2.765.29.33.435.705.435 1.125 0 .39-.13.74-.39 1.05-.26.31-.61.545-1.05.705zm7.155 4.32c-1.14 0-2.01-.27-2.61-.81-.59-.55-.885-1.335-.885-2.355V82.05h1.44v3.075c.23-.23.55-.425.96-.585.42-.16.9-.24 1.44-.24.97 0 1.725.25 2.265.75.55.49.825 1.18.825 2.07 0 .94-.31 1.685-.93 2.235-.62.55-1.455.825-2.505.825zm4.59-8.13h1.44V90h-1.44v-7.95zm-4.575 7.035c.62 0 1.1-.18 1.44-.54.35-.37.525-.84.525-1.41 0-.53-.175-.96-.525-1.29-.35-.33-.85-.495-1.5-.495-.47 0-.88.095-1.23.285-.34.19-.6.455-.78.795v.705c0 .61.175 1.09.525 1.44.36.34.875.51 1.545.51zm14.214-3.21c1.03.26 1.545.905 1.545 1.935 0 .7-.265 1.24-.795 1.62-.52.38-1.3.57-2.34.57h-3.825v-7.95h3.69c.94 0 1.675.18 2.205.54.53.35.795.85.795 1.5 0 .42-.115.785-.345 1.095-.22.3-.53.53-.93.69zm-4.005-.405h2.16c.55 0 .965-.1 1.245-.3.29-.2.435-.49.435-.87 0-.76-.56-1.14-1.68-1.14h-2.16v2.31zm2.31 3.42c.6 0 1.05-.095 1.35-.285.3-.19.45-.485.45-.885 0-.41-.14-.715-.42-.915-.27-.2-.7-.3-1.29-.3h-2.4v2.385h2.31zm-146.761 9.16V106h-1.38v-1.17c-.29.4-.67.71-1.14.93-.47.22-.985.33-1.545.33-1.06 0-1.895-.29-2.505-.87-.61-.59-.915-1.455-.915-2.595V98.05h1.44v4.41c0 .77.185 1.355.555 1.755.37.39.9.585 1.59.585.76 0 1.36-.23 1.8-.69.44-.46.66-1.11.66-1.95v-4.11h1.44zm10.297 8.04c-.81 0-1.535-.175-2.175-.525a3.877 3.877 0 01-1.485-1.44c-.36-.62-.54-1.32-.54-2.1s.18-1.475.54-2.085c.36-.62.855-1.1 1.485-1.44.64-.35 1.365-.525 2.175-.525.72 0 1.36.145 1.92.435.57.29 1.01.71 1.32 1.26l-1.095.705c-.25-.38-.56-.665-.93-.855-.37-.19-.78-.285-1.23-.285-.52 0-.99.115-1.41.345-.41.23-.735.56-.975.99-.23.42-.345.905-.345 1.455 0 .56.115 1.055.345 1.485.24.42.565.745.975.975.42.23.89.345 1.41.345.45 0 .86-.095 1.23-.285.37-.19.68-.475.93-.855l1.095.69c-.31.55-.75.975-1.32 1.275-.56.29-1.2.435-1.92.435zm10.52-4.215c1.03.26 1.545.905 1.545 1.935 0 .7-.265 1.24-.795 1.62-.52.38-1.3.57-2.34.57h-3.825v-7.95h3.69c.94 0 1.675.18 2.205.54.53.35.795.85.795 1.5 0 .42-.115.785-.345 1.095-.22.3-.53.53-.93.69zm-4.005-.405h2.16c.55 0 .965-.1 1.245-.3.29-.2.435-.49.435-.87 0-.76-.56-1.14-1.68-1.14h-2.16v2.31zm2.31 3.42c.6 0 1.05-.095 1.35-.285.3-.19.45-.485.45-.885 0-.41-.14-.715-.42-.915-.27-.2-.7-.3-1.29-.3h-2.4v2.385h2.31zm8.898 1.2c-.79 0-1.5-.175-2.13-.525a3.877 3.877 0 01-1.485-1.44c-.35-.62-.525-1.32-.525-2.1s.175-1.475.525-2.085c.36-.62.855-1.1 1.485-1.44.63-.35 1.34-.525 2.13-.525.79 0 1.495.175 2.115.525.63.34 1.12.82 1.47 1.44.36.61.54 1.305.54 2.085s-.18 1.48-.54 2.1a3.77 3.77 0 01-1.47 1.44c-.62.35-1.325.525-2.115.525zm0-1.26c.51 0 .965-.115 1.365-.345.41-.24.73-.57.96-.99.23-.43.345-.92.345-1.47 0-.55-.115-1.035-.345-1.455-.23-.43-.55-.76-.96-.99-.4-.23-.855-.345-1.365-.345s-.97.115-1.38.345c-.4.23-.72.56-.96.99-.23.42-.345.905-.345 1.455s.115 1.04.345 1.47c.24.42.56.75.96.99.41.23.87.345 1.38.345zm9.76 0c.95 0 1.715-.32 2.295-.96l.78.93c-.35.42-.795.74-1.335.96-.53.22-1.125.33-1.785.33-.84 0-1.585-.17-2.235-.51a3.792 3.792 0 01-1.515-1.455c-.35-.62-.525-1.32-.525-2.1 0-.77.17-1.465.51-2.085.35-.62.825-1.1 1.425-1.44.61-.35 1.295-.525 2.055-.525.72 0 1.375.165 1.965.495.59.32 1.06.775 1.41 1.365.35.59.53 1.27.54 2.04l-6.315 1.23c.2.55.535.975 1.005 1.275.48.3 1.055.45 1.725.45zm-.33-5.64c-.5 0-.95.115-1.35.345-.39.23-.695.555-.915.975-.22.41-.33.89-.33 1.44v.15l5.085-.96c-.13-.58-.42-1.05-.87-1.41-.45-.36-.99-.54-1.62-.54zm17.548-1.14v6.87c0 1.39-.345 2.415-1.035 3.075-.69.67-1.72 1.005-3.09 1.005-.75 0-1.465-.105-2.145-.315-.68-.2-1.23-.49-1.65-.87l.69-1.11c.37.32.825.57 1.365.75.55.19 1.115.285 1.695.285.93 0 1.615-.22 2.055-.66.45-.44.675-1.11.675-2.01v-.63c-.34.41-.76.72-1.26.93-.49.2-1.025.3-1.605.3-.76 0-1.45-.16-2.07-.48a3.71 3.71 0 01-1.44-1.365c-.35-.59-.525-1.26-.525-2.01 0-.75.175-1.415.525-1.995.35-.59.83-1.045 1.44-1.365.62-.32 1.31-.48 2.07-.48.6 0 1.155.11 1.665.33.52.22.945.545 1.275.975v-1.23h1.365zm-4.14 6.36c.52 0 .985-.11 1.395-.33.42-.22.745-.525.975-.915.24-.4.36-.85.36-1.35 0-.77-.255-1.39-.765-1.86-.51-.48-1.165-.72-1.965-.72-.81 0-1.47.24-1.98.72-.51.47-.765 1.09-.765 1.86 0 .5.115.95.345 1.35.24.39.565.695.975.915.42.22.895.33 1.425.33zm10.356 1.68c-.79 0-1.5-.175-2.13-.525a3.877 3.877 0 01-1.485-1.44c-.35-.62-.525-1.32-.525-2.1s.175-1.475.525-2.085c.36-.62.855-1.1 1.485-1.44.63-.35 1.34-.525 2.13-.525.79 0 1.495.175 2.115.525.63.34 1.12.82 1.47 1.44.36.61.54 1.305.54 2.085s-.18 1.48-.54 2.1a3.77 3.77 0 01-1.47 1.44c-.62.35-1.325.525-2.115.525zm0-1.26c.51 0 .965-.115 1.365-.345.41-.24.73-.57.96-.99.23-.43.345-.92.345-1.47 0-.55-.115-1.035-.345-1.455-.23-.43-.55-.76-.96-.99-.4-.23-.855-.345-1.365-.345s-.97.115-1.38.345c-.4.23-.72.56-.96.99-.23.42-.345.905-.345 1.455s.115 1.04.345 1.47c.24.42.56.75.96.99.41.23.87.345 1.38.345zm11.619-2.955c1.03.26 1.545.905 1.545 1.935 0 .7-.265 1.24-.795 1.62-.52.38-1.3.57-2.34.57h-3.825v-7.95h3.69c.94 0 1.675.18 2.205.54.53.35.795.85.795 1.5 0 .42-.115.785-.345 1.095-.22.3-.53.53-.93.69zm-4.005-.405h2.16c.55 0 .965-.1 1.245-.3.29-.2.435-.49.435-.87 0-.76-.56-1.14-1.68-1.14h-2.16v2.31zm2.31 3.42c.6 0 1.05-.095 1.35-.285.3-.19.45-.485.45-.885 0-.41-.14-.715-.42-.915-.27-.2-.7-.3-1.29-.3h-2.4v2.385h2.31zm8.899 1.2c-.79 0-1.5-.175-2.13-.525a3.877 3.877 0 01-1.485-1.44c-.35-.62-.525-1.32-.525-2.1s.175-1.475.525-2.085c.36-.62.855-1.1 1.485-1.44.63-.35 1.34-.525 2.13-.525.79 0 1.495.175 2.115.525.63.34 1.12.82 1.47 1.44.36.61.54 1.305.54 2.085s-.18 1.48-.54 2.1a3.77 3.77 0 01-1.47 1.44c-.62.35-1.325.525-2.115.525zm0-1.26c.51 0 .965-.115 1.365-.345.41-.24.73-.57.96-.99.23-.43.345-.92.345-1.47 0-.55-.115-1.035-.345-1.455-.23-.43-.55-.76-.96-.99-.4-.23-.855-.345-1.365-.345s-.97.115-1.38.345c-.4.23-.72.56-.96.99-.23.42-.345.905-.345 1.455s.115 1.04.345 1.47c.24.42.56.75.96.99.41.23.87.345 1.38.345zm12.971-6.78V106h-1.44v-6.69h-3.42l-.09 1.77c-.05 1.07-.145 1.965-.285 2.685-.14.71-.37 1.28-.69 1.71-.32.43-.765.645-1.335.645-.26 0-.555-.045-.885-.135l.09-1.215c.13.03.25.045.36.045.4 0 .7-.175.9-.525.2-.35.33-.765.39-1.245.06-.48.115-1.165.165-2.055l.135-2.94h6.105zm6.099 8.13c-1.13 0-2-.275-2.61-.825-.6-.55-.9-1.33-.9-2.34V98.05h1.44v3.075c.26-.26.61-.46 1.05-.6.45-.15.935-.225 1.455-.225.99 0 1.76.25 2.31.75s.825 1.19.825 2.07c0 .95-.315 1.7-.945 2.25-.63.54-1.505.81-2.625.81zm.015-1.095c.65 0 1.16-.175 1.53-.525.37-.35.555-.82.555-1.41 0-.56-.18-1-.54-1.32-.36-.32-.865-.48-1.515-.48-.48 0-.905.095-1.275.285-.37.19-.65.455-.84.795v.705c0 .61.185 1.09.555 1.44.37.34.88.51 1.53.51zm5.445-7.035h1.44v3.375h4.53V98.05h1.44V106h-1.44v-3.33h-4.53V106h-1.44v-7.95zm13.615 8.04c-.79 0-1.5-.175-2.13-.525a3.877 3.877 0 01-1.485-1.44c-.35-.62-.525-1.32-.525-2.1s.175-1.475.525-2.085c.36-.62.855-1.1 1.485-1.44.63-.35 1.34-.525 2.13-.525.79 0 1.495.175 2.115.525.63.34 1.12.82 1.47 1.44.36.61.54 1.305.54 2.085s-.18 1.48-.54 2.1a3.77 3.77 0 01-1.47 1.44c-.62.35-1.325.525-2.115.525zm0-1.26c.51 0 .965-.115 1.365-.345.41-.24.73-.57.96-.99.23-.43.345-.92.345-1.47 0-.55-.115-1.035-.345-1.455-.23-.43-.55-.76-.96-.99-.4-.23-.855-.345-1.365-.345s-.97.115-1.38.345c-.4.23-.72.56-.96.99-.23.42-.345.905-.345 1.455s.115 1.04.345 1.47c.24.42.56.75.96.99.41.23.87.345 1.38.345zm9.759 0c.95 0 1.715-.32 2.295-.96l.78.93c-.35.42-.795.74-1.335.96-.53.22-1.125.33-1.785.33-.84 0-1.585-.17-2.235-.51a3.792 3.792 0 01-1.515-1.455c-.35-.62-.525-1.32-.525-2.1 0-.77.17-1.465.51-2.085.35-.62.825-1.1 1.425-1.44.61-.35 1.295-.525 2.055-.525.72 0 1.375.165 1.965.495.59.32 1.06.775 1.41 1.365.35.59.53 1.27.54 2.04l-6.315 1.23c.2.55.535.975 1.005 1.275.48.3 1.055.45 1.725.45zm-.33-5.64c-.5 0-.95.115-1.35.345-.39.23-.695.555-.915.975-.22.41-.33.89-.33 1.44v.15l5.085-.96c-.13-.58-.42-1.05-.87-1.41-.45-.36-.99-.54-1.62-.54zm-170.7 18.82c0 1.23-.41 2.2-1.23 2.91-.82.71-1.975 1.105-3.465 1.185v2.805h-1.41v-2.805c-1.49-.08-2.645-.47-3.465-1.17-.81-.71-1.215-1.685-1.215-2.925 0-1.23.405-2.19 1.215-2.88s1.965-1.075 3.465-1.155v-3.105h1.41v3.105c1.49.08 2.645.47 3.465 1.17.82.69 1.23 1.645 1.23 2.865zm-9.36 0c0 .85.27 1.515.81 1.995.55.48 1.365.755 2.445.825v-5.58c-1.09.07-1.905.34-2.445.81-.54.47-.81 1.12-.81 1.95zm4.665 2.835c2.18-.17 3.27-1.115 3.27-2.835 0-.84-.275-1.49-.825-1.95-.55-.47-1.365-.74-2.445-.81v5.595zm10.136 1.245c-.79 0-1.5-.175-2.13-.525a3.877 3.877 0 01-1.486-1.44c-.35-.62-.524-1.32-.524-2.1s.174-1.475.524-2.085c.36-.62.856-1.1 1.486-1.44.63-.35 1.34-.525 2.13-.525.79 0 1.495.175 2.115.525.63.34 1.12.82 1.47 1.44.36.61.54 1.305.54 2.085s-.18 1.48-.54 2.1a3.77 3.77 0 01-1.47 1.44c-.62.35-1.326.525-2.115.525zm0-1.26c.51 0 .965-.115 1.365-.345.41-.24.73-.57.96-.99.23-.43.345-.92.345-1.47 0-.55-.115-1.035-.346-1.455-.23-.43-.55-.76-.96-.99-.4-.23-.855-.345-1.364-.345-.51 0-.97.115-1.38.345-.4.23-.72.56-.96.99-.23.42-.346.905-.346 1.455s.115 1.04.346 1.47c.24.42.56.75.96.99.41.23.87.345 1.38.345zm16.149-6.855c1 0 1.79.29 2.37.87.59.58.885 1.44.885 2.58V122h-1.44v-4.41c0-.77-.18-1.35-.54-1.74-.35-.39-.855-.585-1.515-.585-.73 0-1.31.23-1.74.69-.43.45-.645 1.1-.645 1.95V122h-1.44v-4.41c0-.77-.18-1.35-.54-1.74-.35-.39-.855-.585-1.515-.585-.73 0-1.31.23-1.74.69-.43.45-.645 1.1-.645 1.95V122h-1.44v-7.95h1.38v1.185c.29-.41.67-.72 1.14-.93.47-.22 1.005-.33 1.605-.33.62 0 1.17.125 1.65.375s.85.615 1.11 1.095c.3-.46.715-.82 1.245-1.08.54-.26 1.145-.39 1.815-.39zm9.222 8.115c-.79 0-1.5-.175-2.13-.525a3.877 3.877 0 01-1.485-1.44c-.35-.62-.525-1.32-.525-2.1s.175-1.475.525-2.085c.36-.62.855-1.1 1.485-1.44.63-.35 1.34-.525 2.13-.525.79 0 1.495.175 2.115.525.63.34 1.12.82 1.47 1.44.36.61.54 1.305.54 2.085s-.18 1.48-.54 2.1a3.77 3.77 0 01-1.47 1.44c-.62.35-1.325.525-2.115.525zm0-1.26c.51 0 .965-.115 1.365-.345.41-.24.73-.57.96-.99.23-.43.345-.92.345-1.47 0-.55-.115-1.035-.345-1.455-.23-.43-.55-.76-.96-.99-.4-.23-.855-.345-1.365-.345s-.97.115-1.38.345c-.4.23-.72.56-.96.99-.23.42-.345.905-.345 1.455s.115 1.04.345 1.47c.24.42.56.75.96.99.41.23.87.345 1.38.345zm15.647-2.955c1.03.26 1.545.905 1.545 1.935 0 .7-.265 1.24-.795 1.62-.52.38-1.3.57-2.34.57h-3.825v-7.95h3.69c.94 0 1.675.18 2.205.54.53.35.795.85.795 1.5 0 .42-.115.785-.345 1.095-.22.3-.53.53-.93.69zm-4.005-.405h2.16c.55 0 .965-.1 1.245-.3.29-.2.435-.49.435-.87 0-.76-.56-1.14-1.68-1.14h-2.16v2.31zm2.31 3.42c.6 0 1.05-.095 1.35-.285.3-.19.45-.485.45-.885 0-.41-.14-.715-.42-.915-.27-.2-.7-.3-1.29-.3h-2.4v2.385h2.31zm16.348-6.84V122h-1.44v-6.69h-3.42l-.09 1.77c-.05 1.07-.145 1.965-.285 2.685-.14.71-.37 1.28-.69 1.71-.32.43-.765.645-1.335.645-.26 0-.555-.045-.885-.135l.09-1.215c.13.03.25.045.36.045.4 0 .7-.175.9-.525.2-.35.33-.765.39-1.245.06-.48.115-1.165.165-2.055l.135-2.94h6.105zm9.819-.075c.77 0 1.46.175 2.07.525.61.34 1.09.82 1.44 1.44.35.61.525 1.305.525 2.085s-.175 1.48-.525 2.1c-.35.61-.83 1.09-1.44 1.44-.61.35-1.3.525-2.07.525a4.14 4.14 0 01-1.905-.435 3.846 3.846 0 01-1.41-1.215 4.135 4.135 0 01-.675-1.8h-1.605V122h-1.44v-7.95h1.44v3.255h1.62c.1-.66.33-1.24.69-1.74.37-.51.835-.9 1.395-1.17.57-.28 1.2-.42 1.89-.42zm0 6.855c.49 0 .93-.115 1.32-.345.4-.23.715-.555.945-.975.23-.43.345-.925.345-1.485 0-.55-.115-1.035-.345-1.455a2.44 2.44 0 00-.945-.99 2.55 2.55 0 00-1.32-.345c-.49 0-.935.115-1.335.345-.4.23-.715.56-.945.99-.22.42-.33.905-.33 1.455 0 .56.11 1.055.33 1.485.23.42.545.745.945.975.4.23.845.345 1.335.345zm10.155-6.51c.74 0 1.4.165 1.98.495.58.33 1.03.79 1.35 1.38.33.58.495 1.245.495 1.995 0 .77-.175 1.455-.525 2.055-.34.59-.825 1.05-1.455 1.38-.62.33-1.33.495-2.13.495-1.35 0-2.395-.46-3.135-1.38-.73-.93-1.095-2.235-1.095-3.915 0-1.63.335-2.905 1.005-3.825.67-.93 1.695-1.545 3.075-1.845l3.63-.81.21 1.32-3.345.72c-1.04.23-1.815.62-2.325 1.17-.51.55-.8 1.34-.87 2.37.34-.51.78-.905 1.32-1.185s1.145-.42 1.815-.42zm-.255 6.6c.51 0 .96-.115 1.35-.345.4-.23.71-.545.93-.945.22-.41.33-.875.33-1.395 0-.79-.24-1.425-.72-1.905s-1.11-.72-1.89-.72c-.78 0-1.415.24-1.905.72-.48.48-.72 1.115-.72 1.905 0 .52.11.985.33 1.395.23.4.545.715.945.945.4.23.85.345 1.35.345zm9.541 1.17c-.79 0-1.5-.175-2.13-.525a3.877 3.877 0 01-1.485-1.44c-.35-.62-.525-1.32-.525-2.1s.175-1.475.525-2.085c.36-.62.855-1.1 1.485-1.44.63-.35 1.34-.525 2.13-.525.79 0 1.495.175 2.115.525.63.34 1.12.82 1.47 1.44.36.61.54 1.305.54 2.085s-.18 1.48-.54 2.1a3.77 3.77 0 01-1.47 1.44c-.62.35-1.325.525-2.115.525zm0-1.26c.51 0 .965-.115 1.365-.345.41-.24.73-.57.96-.99.23-.43.345-.92.345-1.47 0-.55-.115-1.035-.345-1.455-.23-.43-.55-.76-.96-.99-.4-.23-.855-.345-1.365-.345s-.97.115-1.38.345c-.4.23-.72.56-.96.99-.23.42-.345.905-.345 1.455s.115 1.04.345 1.47c.24.42.56.75.96.99.41.23.87.345 1.38.345zm13.45-6.78V122h-1.38v-1.17c-.29.4-.67.71-1.14.93-.47.22-.985.33-1.545.33-1.06 0-1.895-.29-2.505-.87-.61-.59-.915-1.455-.915-2.595v-4.575h1.44v4.41c0 .77.185 1.355.555 1.755.37.39.9.585 1.59.585.76 0 1.36-.23 1.8-.69.44-.46.66-1.11.66-1.95v-4.11h1.44zm-3.75-1.035c-.74 0-1.315-.175-1.725-.525-.41-.36-.62-.875-.63-1.545h.975c.01.37.135.67.375.9.25.22.58.33.99.33.41 0 .74-.11.99-.33.25-.23.38-.53.39-.9h1.005c-.01.67-.225 1.185-.645 1.545-.42.35-.995.525-1.725.525zm19.747 1.035V122h-1.305v-5.805l-2.97 4.905h-.63l-2.94-4.92V122h-1.32v-7.95h1.485l3.12 5.37 3.21-5.37h1.35zm6.357 6.78c.95 0 1.715-.32 2.295-.96l.78.93c-.35.42-.795.74-1.335.96-.53.22-1.125.33-1.785.33-.84 0-1.585-.17-2.235-.51a3.792 3.792 0 01-1.515-1.455c-.35-.62-.525-1.32-.525-2.1 0-.77.17-1.465.51-2.085.35-.62.825-1.1 1.425-1.44.61-.35 1.295-.525 2.055-.525.72 0 1.375.165 1.965.495.59.32 1.06.775 1.41 1.365.35.59.53 1.27.54 2.04l-6.315 1.23c.2.55.535.975 1.005 1.275.48.3 1.055.45 1.725.45zm-.33-5.64c-.5 0-.95.115-1.35.345-.39.23-.695.555-.915.975-.22.41-.33.89-.33 1.44v.15l5.085-.96c-.13-.58-.42-1.05-.87-1.41-.45-.36-.99-.54-1.62-.54zm9.425 6.9c-.81 0-1.535-.175-2.175-.525a3.877 3.877 0 01-1.485-1.44c-.36-.62-.54-1.32-.54-2.1s.18-1.475.54-2.085c.36-.62.855-1.1 1.485-1.44.64-.35 1.365-.525 2.175-.525.72 0 1.36.145 1.92.435.57.29 1.01.71 1.32 1.26l-1.095.705c-.25-.38-.56-.665-.93-.855-.37-.19-.78-.285-1.23-.285-.52 0-.99.115-1.41.345-.41.23-.735.56-.975.99-.23.42-.345.905-.345 1.455 0 .56.115 1.055.345 1.485.24.42.565.745.975.975.42.23.89.345 1.41.345.45 0 .86-.095 1.23-.285.37-.19.68-.475.93-.855l1.095.69c-.31.55-.75.975-1.32 1.275-.56.29-1.2.435-1.92.435zm8.452 0c-.81 0-1.535-.175-2.175-.525a3.877 3.877 0 01-1.485-1.44c-.36-.62-.54-1.32-.54-2.1s.18-1.475.54-2.085c.36-.62.855-1.1 1.485-1.44.64-.35 1.365-.525 2.175-.525.72 0 1.36.145 1.92.435.57.29 1.01.71 1.32 1.26l-1.095.705c-.25-.38-.56-.665-.93-.855-.37-.19-.78-.285-1.23-.285-.52 0-.99.115-1.41.345-.41.23-.735.56-.975.99-.23.42-.345.905-.345 1.455 0 .56.115 1.055.345 1.485.24.42.565.745.975.975.42.23.89.345 1.41.345.45 0 .86-.095 1.23-.285.37-.19.68-.475.93-.855l1.095.69c-.31.55-.75.975-1.32 1.275-.56.29-1.2.435-1.92.435zm8.542-1.26c.95 0 1.715-.32 2.295-.96l.78.93c-.35.42-.795.74-1.335.96-.53.22-1.125.33-1.785.33-.84 0-1.585-.17-2.235-.51a3.792 3.792 0 01-1.515-1.455c-.35-.62-.525-1.32-.525-2.1 0-.77.17-1.465.51-2.085.35-.62.825-1.1 1.425-1.44.61-.35 1.295-.525 2.055-.525.72 0 1.375.165 1.965.495.59.32 1.06.775 1.41 1.365.35.59.53 1.27.54 2.04l-6.315 1.23c.2.55.535.975 1.005 1.275.48.3 1.055.45 1.725.45zm-.33-5.64c-.5 0-.95.115-1.35.345-.39.23-.695.555-.915.975-.22.41-.33.89-.33 1.44v.15l5.085-.96c-.13-.58-.42-1.05-.87-1.41-.45-.36-.99-.54-1.62-.54zm5.96-1.14h1.44v3.375h4.53v-3.375h1.44V122h-1.44v-3.33h-4.53V122h-1.44v-7.95zm17.77 0v6.87c0 1.39-.345 2.415-1.035 3.075-.69.67-1.72 1.005-3.09 1.005-.75 0-1.465-.105-2.145-.315-.68-.2-1.23-.49-1.65-.87l.69-1.11c.37.32.825.57 1.365.75.55.19 1.115.285 1.695.285.93 0 1.615-.22 2.055-.66.45-.44.675-1.11.675-2.01v-.63c-.34.41-.76.72-1.26.93-.49.2-1.025.3-1.605.3-.76 0-1.45-.16-2.07-.48a3.71 3.71 0 01-1.44-1.365c-.35-.59-.525-1.26-.525-2.01 0-.75.175-1.415.525-1.995.35-.59.83-1.045 1.44-1.365.62-.32 1.31-.48 2.07-.48.6 0 1.155.11 1.665.33.52.22.945.545 1.275.975v-1.23h1.365zm-4.14 6.36c.52 0 .985-.11 1.395-.33.42-.22.745-.525.975-.915.24-.4.36-.85.36-1.35 0-.77-.255-1.39-.765-1.86-.51-.48-1.165-.72-1.965-.72-.81 0-1.47.24-1.98.72-.51.47-.765 1.09-.765 1.86 0 .5.115.95.345 1.35.24.39.565.695.975.915.42.22.895.33 1.425.33zm14.181-1.77h-1.545V122h-1.44v-3.36h-1.545l-2.19 3.36h-1.71l2.73-4.11-2.52-3.84h1.53l2.145 3.36h1.56v-3.36h1.44v3.36h1.56l2.145-3.36h1.545l-2.52 3.855 2.73 4.095h-1.71l-2.205-3.36zm8.791 2.19c.95 0 1.715-.32 2.295-.96l.78.93c-.35.42-.795.74-1.335.96-.53.22-1.125.33-1.785.33-.84 0-1.585-.17-2.235-.51a3.792 3.792 0 01-1.515-1.455c-.35-.62-.525-1.32-.525-2.1 0-.77.17-1.465.51-2.085.35-.62.825-1.1 1.425-1.44.61-.35 1.295-.525 2.055-.525.72 0 1.375.165 1.965.495.59.32 1.06.775 1.41 1.365.35.59.53 1.27.54 2.04l-6.315 1.23c.2.55.535.975 1.005 1.275.48.3 1.055.45 1.725.45zm-.33-5.64c-.5 0-.95.115-1.35.345-.39.23-.695.555-.915.975-.22.41-.33.89-.33 1.44v.15l5.085-.96c-.13-.58-.42-1.05-.87-1.41-.45-.36-.99-.54-1.62-.54zm9.739-1.215c.8 0 1.505.17 2.115.51.62.34 1.095.82 1.425 1.44.34.61.51 1.315.51 2.115 0 .79-.165 1.495-.495 2.115-.33.61-.79 1.085-1.38 1.425-.59.34-1.265.51-2.025.51-.6 0-1.14-.105-1.62-.315-.48-.22-.88-.535-1.2-.945v4.08h-1.455v-6.855c0-.8.17-1.51.51-2.13.35-.62.835-1.1 1.455-1.44.63-.34 1.35-.51 2.16-.51zm-.045 6.855c.51 0 .97-.115 1.38-.345.41-.24.725-.57.945-.99.23-.43.345-.915.345-1.455s-.115-1.02-.345-1.44a2.412 2.412 0 00-.945-1.005c-.4-.24-.86-.36-1.38-.36-.79 0-1.43.26-1.92.78-.49.51-.735 1.18-.735 2.01 0 .55.11 1.04.33 1.47.23.42.545.75.945.99.4.23.86.345 1.38.345zm5.972-9.33h1.695l-.285 7.185h-1.14l-.27-7.185zm.855 10.59a.986.986 0 01-.705-.27.94.94 0 01-.285-.69c0-.27.095-.495.285-.675a.958.958 0 01.705-.285c.28 0 .51.095.69.285.18.18.27.405.27.675s-.095.5-.285.69a.916.916 0 01-.675.27zm7.727-6.06c-.28 0-.52-.095-.72-.285-.2-.2-.3-.45-.3-.75 0-.29.1-.53.3-.72.2-.2.44-.3.72-.3.28 0 .515.095.705.285.19.19.285.435.285.735s-.1.55-.3.75a.94.94 0 01-.69.285zm0 6.06c-.28 0-.52-.095-.72-.285-.2-.2-.3-.45-.3-.75 0-.29.1-.53.3-.72.2-.2.44-.3.72-.3.28 0 .515.095.705.285.19.19.285.435.285.735s-.1.55-.3.75a.94.94 0 01-.69.285zm2.168 2.82c.6-1.05 1.04-2.15 1.32-3.3.29-1.15.435-2.39.435-3.72s-.145-2.57-.435-3.72a12.66 12.66 0 00-1.32-3.3h1.365c.58.9 1.025 1.95 1.335 3.15.31 1.2.465 2.49.465 3.87 0 1.37-.155 2.655-.465 3.855-.31 1.2-.755 2.255-1.335 3.165h-1.365z" fill="#fff"/></svg>